<svg width="81" height="80" viewBox="0 0 81 80" fill="none" xmlns="http://www.w3.org/2000/svg">
<circle cx="40.5" cy="40" r="40" fill="#3A7AFC" fill-opacity="0.05"/>
<path d="M49.7673 23.3333H31.184C27.134 23.3333 23.834 26.6333 23.834 30.6833V41.5166V41.8499C23.834 45.9166 27.134 49.1999 31.184 49.1999H37.584C38.5007 49.1999 39.2507 49.9499 39.2507 50.8666V52.4833C39.2507 53.3999 38.5007 54.1499 37.584 54.1499H33.5507C32.8673 54.1499 32.3007 54.7166 32.3007 55.3999C32.3007 56.0833 32.8507 56.6666 33.5507 56.6666H47.4673C48.1507 56.6666 48.7173 56.0999 48.7173 55.4166C48.7173 54.7333 48.1507 54.1666 47.4673 54.1666H43.434C42.5173 54.1666 41.7673 53.4166 41.7673 52.4999V50.8833C41.7673 49.9666 42.5173 49.2166 43.434 49.2166H49.784C53.8507 49.2166 57.134 45.9166 57.134 41.8666V41.5333V30.6999C57.1173 26.6333 53.8173 23.3333 49.7673 23.3333Z" fill="#D80C56"/>
</svg>
