<svg width="55" height="54" viewBox="0 0 55 54" fill="none" xmlns="http://www.w3.org/2000/svg">
<circle cx="27.7236" cy="26.75" r="26.25" fill="white" fill-opacity="0.05" stroke="#15C5CE"/>
<path d="M21.7236 30.6667V17.8333H27.2236C27.7299 17.8333 28.1403 17.4229 28.1403 16.9167C28.1403 16.4104 27.7299 16 27.2236 16H18.9736C17.4548 16 16.2236 17.2312 16.2236 18.75V35.25C16.2236 36.7688 17.4549 38 18.9736 38H35.4736C36.9924 38 38.2236 36.7688 38.2236 35.25V27C38.2236 26.4937 37.8132 26.0833 37.307 26.0833C36.8007 26.0833 36.3903 26.4937 36.3903 27V32.5H23.557C22.5444 32.5 21.7236 31.6792 21.7236 30.6667Z" fill="white"/>
<path d="M31.807 16.9167C31.807 17.4229 32.2174 17.8333 32.7236 17.8333H35.0939L25.3903 27.537V26.0833C25.3903 25.5771 24.9799 25.1667 24.4736 25.1667C23.9674 25.1667 23.557 25.5771 23.557 26.0833V29.75C23.557 30.2563 23.9674 30.6667 24.4736 30.6667H28.1403C28.6466 30.6667 29.057 30.2563 29.057 29.75C29.057 29.2437 28.6466 28.8333 28.1403 28.8333H26.6867L36.3903 19.1297V21.5C36.3903 22.0063 36.8007 22.4167 37.307 22.4167C37.8132 22.4167 38.2236 22.0063 38.2236 21.5V16.9167C38.2236 16.4104 37.8132 16 37.307 16H32.7236C32.2174 16 31.807 16.4104 31.807 16.9167Z" fill="white"/>
</svg>
