<svg width="354" height="340" viewBox="0 0 354 340" fill="none" xmlns="http://www.w3.org/2000/svg">
<rect width="354" height="340" rx="5" fill="#D80C56"/>
<g clip-path="url(#clip0_245_249)">
<path d="M100 178.797V152.387H102.981V163.289H103.515C103.794 162.699 104.185 162.169 104.667 161.73C105.246 161.195 105.924 160.778 106.663 160.503C107.663 160.142 108.723 159.975 109.786 160.011C111.079 159.989 112.357 160.293 113.501 160.895C114.598 161.49 115.507 162.38 116.123 163.465C116.821 164.741 117.162 166.182 117.109 167.636V178.797H114.128V167.861C114.128 166.026 113.668 164.691 112.75 163.857C111.71 162.988 110.38 162.544 109.026 162.614C108.218 162.582 107.413 162.721 106.662 163.019C105.912 163.318 105.232 163.771 104.667 164.349C103.548 165.508 102.997 167.227 102.997 169.521V178.797H100Z" fill="white"/>
<path d="M131.687 179.314C129.97 179.354 128.27 178.952 126.753 178.146C125.341 177.379 124.181 176.22 123.413 174.81C122.596 173.27 122.188 171.547 122.227 169.805V169.313C122.189 167.57 122.597 165.848 123.413 164.307C124.181 162.897 125.341 161.739 126.753 160.971C128.272 160.17 129.97 159.768 131.687 159.803C133.402 159.768 135.097 160.17 136.614 160.971C138.025 161.739 139.185 162.897 139.954 164.307C140.769 165.848 141.177 167.57 141.139 169.313V169.805C141.179 171.547 140.77 173.27 139.954 174.81C139.185 176.22 138.025 177.379 136.614 178.146C135.099 178.951 133.403 179.353 131.687 179.314V179.314ZM131.687 176.637C132.559 176.678 133.43 176.533 134.24 176.21C135.051 175.888 135.783 175.396 136.388 174.768C137.603 173.391 138.232 171.596 138.142 169.763V169.421C138.229 167.589 137.6 165.794 136.388 164.416C135.782 163.789 135.05 163.299 134.239 162.977C133.429 162.654 132.559 162.508 131.687 162.547C130.819 162.511 129.952 162.658 129.145 162.98C128.337 163.302 127.608 163.792 127.003 164.416C125.776 165.786 125.137 167.584 125.225 169.421V169.763C125.135 171.6 125.774 173.398 127.003 174.768C127.606 175.394 128.336 175.885 129.144 176.207C129.951 176.529 130.819 176.676 131.687 176.637Z" fill="white"/>
<path d="M153.93 179.314C151.882 179.382 149.86 178.833 148.127 177.737C147.319 177.158 146.646 176.41 146.155 175.546C145.663 174.682 145.365 173.722 145.28 172.732L148.111 172.09C148.237 173.123 148.629 174.105 149.246 174.943C149.777 175.618 150.49 176.127 151.3 176.411C152.146 176.706 153.035 176.853 153.93 176.845C155.084 176.907 156.229 176.616 157.212 176.011C157.589 175.777 157.898 175.45 158.11 175.061C158.323 174.672 158.43 174.235 158.423 173.792C158.455 173.379 158.363 172.965 158.157 172.605C157.952 172.245 157.643 171.955 157.27 171.773C156.268 171.306 155.206 170.98 154.114 170.805L152.57 170.547C151.453 170.366 150.362 170.049 149.321 169.604C148.41 169.225 147.605 168.629 146.975 167.869C146.39 167.071 146.095 166.096 146.14 165.108C146.111 164.351 146.273 163.598 146.61 162.919C146.946 162.24 147.448 161.656 148.069 161.221C149.579 160.228 151.365 159.74 153.171 159.827C154.971 159.745 156.751 160.243 158.247 161.246C159.551 162.212 160.445 163.632 160.752 165.225L157.955 165.942C157.904 165.384 157.731 164.843 157.45 164.357C157.169 163.872 156.786 163.454 156.327 163.131C155.374 162.554 154.276 162.265 153.162 162.297C152.121 162.245 151.085 162.484 150.173 162.989C149.823 163.203 149.537 163.508 149.345 163.87C149.152 164.232 149.061 164.64 149.079 165.049C149.058 165.437 149.143 165.823 149.326 166.165C149.508 166.508 149.781 166.794 150.115 166.993C150.979 167.465 151.92 167.778 152.895 167.919L154.44 168.178C155.644 168.375 156.826 168.685 157.972 169.104C158.936 169.436 159.799 170.01 160.477 170.772C161.123 171.585 161.452 172.604 161.403 173.641C161.44 174.45 161.274 175.254 160.921 175.982C160.569 176.71 160.04 177.339 159.383 177.812C157.774 178.885 155.862 179.412 153.93 179.314V179.314Z" fill="white"/>
<path d="M172.776 178.797C172.336 178.829 171.893 178.772 171.476 178.629C171.058 178.485 170.674 178.259 170.347 177.963C170.055 177.642 169.831 177.267 169.688 176.859C169.545 176.45 169.485 176.017 169.512 175.585V162.947H163.959V160.336H169.512V153.771H172.492V160.328H178.538V162.947H172.492V175.093C172.468 175.244 172.479 175.399 172.525 175.544C172.57 175.69 172.649 175.824 172.755 175.934C172.861 176.044 172.992 176.128 173.136 176.179C173.28 176.23 173.434 176.246 173.586 176.228H177.703V178.797H172.776Z" fill="white"/>
<path d="M182.854 186.304V160.044H187.539V162.305H188.215C188.716 161.505 189.403 160.838 190.219 160.361C191.414 159.731 192.761 159.442 194.11 159.527C195.576 159.522 197.018 159.908 198.285 160.645C199.6 161.424 200.673 162.553 201.382 163.907C202.2 165.517 202.602 167.307 202.551 169.112V169.721C202.602 171.526 202.2 173.315 201.382 174.926C200.673 176.279 199.6 177.409 198.285 178.188C197.017 178.923 195.576 179.306 194.11 179.297C193.143 179.324 192.178 179.192 191.254 178.905C190.577 178.693 189.95 178.347 189.409 177.887C188.979 177.518 188.603 177.092 188.29 176.62H187.614V186.304H182.854ZM192.674 175.135C193.351 175.157 194.026 175.043 194.659 174.799C195.291 174.555 195.869 174.187 196.356 173.717C196.873 173.159 197.269 172.501 197.519 171.783C197.769 171.065 197.868 170.303 197.809 169.546V169.17C197.861 168.418 197.758 167.663 197.505 166.953C197.252 166.242 196.855 165.591 196.339 165.041C195.853 164.574 195.278 164.208 194.649 163.965C194.02 163.721 193.348 163.605 192.674 163.623C191.999 163.605 191.328 163.721 190.698 163.965C190.069 164.208 189.495 164.574 189.008 165.041C188.492 165.591 188.095 166.242 187.842 166.953C187.589 167.663 187.486 168.418 187.539 169.17V169.546C187.48 170.305 187.581 171.068 187.834 171.786C188.087 172.504 188.487 173.161 189.008 173.717C189.492 174.19 190.065 174.562 190.695 174.811C191.324 175.06 191.997 175.182 192.674 175.168V175.135Z" fill="white"/>
<path d="M215.484 179.314C213.765 179.351 212.065 178.943 210.55 178.13C209.138 177.362 207.978 176.203 207.21 174.793C206.387 173.22 205.979 171.463 206.024 169.688V169.229C205.977 167.456 206.379 165.7 207.193 164.124C207.943 162.717 209.086 161.558 210.483 160.787C211.984 159.969 213.674 159.557 215.384 159.594C217.068 159.555 218.73 159.983 220.185 160.829C221.541 161.641 222.64 162.817 223.358 164.224C224.133 165.777 224.519 167.494 224.485 169.229V170.897H210.859C210.861 171.491 210.991 172.077 211.239 172.616C211.486 173.156 211.846 173.636 212.295 174.026C213.212 174.841 214.407 175.274 215.635 175.235C216.684 175.331 217.731 175.033 218.574 174.401C219.179 173.863 219.668 173.207 220.01 172.474L223.901 174.518C223.471 175.28 222.958 175.994 222.373 176.645C221.628 177.473 220.722 178.14 219.709 178.605C218.372 179.156 216.928 179.398 215.484 179.314ZM210.909 167.285H219.676C219.642 166.786 219.509 166.299 219.283 165.852C219.058 165.405 218.746 165.007 218.365 164.683C217.521 163.998 216.454 163.647 215.367 163.698C214.262 163.637 213.173 163.988 212.312 164.683C211.542 165.35 211.042 166.276 210.909 167.285V167.285Z" fill="white"/>
<path d="M225.856 178.797L232.652 169.362L225.931 160.086L223.852 149.008L235.708 166.309H236.384L240.66 160.086H246.17L239.449 169.362L246.254 178.797H240.668L236.393 172.499H235.716L223.86 190.017L225.856 178.797Z" fill="white"/>
<path d="M250.67 156.107C250.051 156.107 249.458 155.862 249.02 155.426C248.582 154.99 248.334 154.398 248.332 153.78C248.332 153.161 248.578 152.566 249.017 152.128C249.455 151.69 250.05 151.444 250.67 151.444C250.977 151.444 251.28 151.505 251.563 151.622C251.847 151.74 252.104 151.912 252.32 152.129C252.537 152.346 252.708 152.604 252.825 152.887C252.941 153.17 253.001 153.474 253 153.78C253 154.397 252.754 154.989 252.317 155.426C251.88 155.862 251.288 156.107 250.67 156.107V156.107ZM250.67 151.936C250.174 151.93 249.695 152.119 249.337 152.462C248.979 152.806 248.771 153.276 248.758 153.772C248.76 154.27 248.96 154.748 249.314 155.099C249.667 155.451 250.146 155.649 250.645 155.649C251.143 155.649 251.621 155.451 251.973 155.099C252.326 154.747 252.524 154.269 252.524 153.772C252.521 153.279 252.326 152.806 251.98 152.456C251.633 152.105 251.163 151.903 250.67 151.895V151.936Z" fill="white"/>
<path d="M249.902 154.822V152.729H250.779C250.896 152.727 251.013 152.749 251.121 152.795C251.216 152.835 251.298 152.902 251.355 152.987C251.41 153.078 251.439 153.182 251.439 153.288V153.288C251.444 153.402 251.408 153.514 251.338 153.605C251.281 153.68 251.203 153.738 251.113 153.771V153.821C251.147 153.82 251.181 153.826 251.213 153.839C251.245 153.852 251.273 153.872 251.297 153.897C251.32 153.924 251.339 153.956 251.35 153.99C251.362 154.024 251.366 154.061 251.364 154.097V154.789H251.038V154.138C251.038 154.093 251.023 154.049 250.996 154.013C250.979 153.996 250.958 153.982 250.935 153.973C250.912 153.965 250.887 153.961 250.862 153.963H250.228V154.797L249.902 154.822ZM250.228 153.705H250.745C250.794 153.708 250.843 153.701 250.888 153.685C250.934 153.67 250.976 153.645 251.013 153.613C251.047 153.583 251.073 153.545 251.091 153.503C251.108 153.462 251.116 153.416 251.113 153.371V153.371C251.116 153.326 251.108 153.28 251.091 153.239C251.073 153.197 251.047 153.159 251.013 153.129C250.976 153.097 250.934 153.072 250.888 153.056C250.843 153.041 250.794 153.034 250.745 153.037H250.228V153.705Z" fill="white"/>
</g>
<defs>
<clipPath id="clip0_245_249">
<rect width="153" height="41" fill="white" transform="translate(100 149)"/>
</clipPath>
</defs>
</svg>
