<svg width="501" height="175" viewBox="0 0 501 175" fill="none" xmlns="http://www.w3.org/2000/svg">
<rect width="500.5" height="174.778" rx="5" fill="#A2A9B0"/>
<g clip-path="url(#clip0_244_180)">
<path d="M173 95.7969V69.3867H175.981V80.2894H176.515C176.794 79.6994 177.185 79.1695 177.667 78.7295C178.246 78.1948 178.924 77.7783 179.663 77.5033C180.663 77.1421 181.723 76.975 182.786 77.0111C184.079 76.9886 185.357 77.2927 186.501 77.8953C187.598 78.4902 188.507 79.3803 189.123 80.4646C189.821 81.741 190.162 83.182 190.109 84.6355V95.7969H187.128V84.8608C187.128 83.0256 186.668 81.6909 185.75 80.8567C184.71 79.9883 183.38 79.5443 182.026 79.6137C181.218 79.5823 180.413 79.7206 179.662 80.0194C178.912 80.3183 178.232 80.7712 177.667 81.3488C176.548 82.5084 175.997 84.2268 175.997 86.5208V95.7969H173Z" fill="white" fill-opacity="0.11"/>
<path d="M204.687 96.3141C202.97 96.354 201.27 95.9518 199.753 95.1462C198.341 94.3783 197.181 93.2197 196.413 91.8095C195.596 90.2697 195.188 88.5465 195.227 86.8044V86.3123C195.189 84.5702 195.597 82.8474 196.413 81.3072C197.181 79.897 198.341 78.7384 199.753 77.9704C201.272 77.1701 202.97 76.7682 204.687 76.8026C206.402 76.7682 208.097 77.1701 209.614 77.9704C211.025 78.7384 212.185 79.897 212.954 81.3072C213.769 82.8474 214.177 84.5702 214.139 86.3123V86.8044C214.179 88.5465 213.77 90.2697 212.954 91.8095C212.185 93.2197 211.025 94.3783 209.614 95.1462C208.099 95.9504 206.403 96.3526 204.687 96.3141V96.3141ZM204.687 93.6363C205.559 93.6777 206.43 93.5324 207.24 93.2101C208.051 92.8878 208.783 92.396 209.388 91.7678C210.603 90.391 211.232 88.5955 211.142 86.7627V86.4207C211.229 84.5883 210.6 82.7937 209.388 81.4156C208.782 80.7891 208.05 80.2985 207.239 79.9764C206.429 79.6542 205.559 79.5079 204.687 79.5471C203.819 79.5103 202.952 79.6578 202.145 79.9798C201.337 80.3019 200.608 80.7913 200.003 81.4156C198.776 82.7862 198.137 84.5838 198.225 86.4207V86.7627C198.135 88.5998 198.774 90.3981 200.003 91.7678C200.606 92.3939 201.336 92.8844 202.144 93.2066C202.951 93.5288 203.819 93.6753 204.687 93.6363Z" fill="white" fill-opacity="0.11"/>
<path d="M226.93 96.3141C224.882 96.3825 222.86 95.8331 221.127 94.7375C220.319 94.1581 219.646 93.4107 219.155 92.5467C218.663 91.6827 218.365 90.7226 218.28 89.7324L221.111 89.0902C221.237 90.1229 221.629 91.1055 222.246 91.943C222.777 92.6179 223.49 93.1273 224.3 93.4112C225.146 93.7062 226.035 93.8529 226.93 93.8449C228.084 93.9073 229.229 93.6163 230.212 93.0108C230.589 92.7771 230.898 92.4498 231.11 92.0609C231.323 91.672 231.43 91.2347 231.423 90.7919C231.455 90.3788 231.363 89.9655 231.157 89.6056C230.952 89.2457 230.643 88.9557 230.27 88.7732C229.268 88.306 228.206 87.9803 227.114 87.8055L225.57 87.5469C224.453 87.3658 223.362 87.0492 222.321 86.6043C221.41 86.2249 220.605 85.6294 219.975 84.8692C219.39 84.0709 219.095 83.0967 219.14 82.1081C219.111 81.3507 219.273 80.5982 219.61 79.9192C219.946 79.2402 220.448 78.6563 221.069 78.2208C222.579 77.2278 224.365 76.74 226.171 76.8277C227.971 76.7457 229.751 77.2428 231.247 78.2458C232.551 79.2123 233.445 80.632 233.752 82.2248L230.955 82.9422C230.904 82.3838 230.731 81.8431 230.45 81.3577C230.169 80.8723 229.786 80.4538 229.327 80.131C228.374 79.5545 227.276 79.2648 226.162 79.2968C225.121 79.2448 224.085 79.4846 223.173 79.9892C222.823 80.2036 222.537 80.5078 222.345 80.8702C222.152 81.2326 222.061 81.6399 222.079 82.0497C222.058 82.4372 222.143 82.8231 222.326 83.1657C222.508 83.5083 222.781 83.7945 223.115 83.9933C223.979 84.4649 224.92 84.7785 225.895 84.9192L227.44 85.1778C228.644 85.3748 229.826 85.6848 230.972 86.1038C231.936 86.436 232.799 87.0105 233.477 87.7721C234.123 88.5854 234.452 89.6047 234.403 90.6417C234.44 91.4499 234.274 92.2544 233.921 92.9826C233.569 93.7107 233.04 94.3397 232.383 94.8126C230.774 95.8854 228.862 96.4119 226.93 96.3141V96.3141Z" fill="white" fill-opacity="0.11"/>
<path d="M245.776 95.7969C245.336 95.8293 244.893 95.772 244.476 95.6286C244.058 95.4853 243.674 95.2587 243.347 94.9627C243.055 94.6424 242.831 94.2669 242.688 93.8585C242.545 93.4502 242.485 93.0173 242.512 92.5853V79.9475H236.959V77.3365H242.512V70.7715H245.492V77.3281H251.538V79.9475H245.492V92.0932C245.468 92.244 245.479 92.3985 245.525 92.5444C245.57 92.6903 245.649 92.8236 245.755 92.9336C245.861 93.0437 245.992 93.1276 246.136 93.1786C246.28 93.2297 246.434 93.2464 246.586 93.2276H250.703V95.7969H245.776Z" fill="white" fill-opacity="0.11"/>
<path d="M255.854 103.305V77.0446H260.539V79.3052H261.215C261.716 78.5051 262.403 77.8382 263.219 77.3616C264.414 76.7313 265.761 76.4426 267.11 76.5274C268.576 76.5219 270.018 76.9078 271.285 77.6452C272.6 78.4242 273.673 79.5536 274.382 80.9069C275.2 82.5177 275.602 84.3069 275.551 86.1122V86.7211C275.602 88.5264 275.2 90.3156 274.382 91.9264C273.673 93.2797 272.6 94.409 271.285 95.1881C270.017 95.9229 268.576 96.3059 267.11 96.2975C266.143 96.3246 265.178 96.1922 264.254 95.9054C263.577 95.693 262.95 95.3469 262.409 94.8877C261.979 94.5185 261.603 94.0918 261.29 93.6198H260.614V103.305H255.854ZM265.674 92.1349C266.351 92.157 267.026 92.0429 267.659 91.7993C268.291 91.5557 268.869 91.1876 269.356 90.7168C269.873 90.1594 270.269 89.5011 270.519 88.7833C270.769 88.0655 270.868 87.3037 270.809 86.5459V86.1706C270.861 85.4183 270.758 84.6633 270.505 83.9528C270.252 83.2423 269.855 82.5916 269.339 82.0414C268.853 81.5742 268.278 81.2082 267.649 80.9648C267.02 80.7213 266.348 80.6052 265.674 80.6232C264.999 80.6052 264.328 80.7213 263.698 80.9648C263.069 81.2082 262.495 81.5742 262.008 82.0414C261.492 82.5916 261.095 83.2423 260.842 83.9528C260.589 84.6633 260.486 85.4183 260.539 86.1706V86.5459C260.48 87.305 260.581 88.0679 260.834 88.786C261.087 89.5042 261.487 90.1617 262.008 90.7168C262.492 91.19 263.065 91.5621 263.695 91.8113C264.324 92.0605 264.997 92.1819 265.674 92.1683V92.1349Z" fill="white" fill-opacity="0.11"/>
<path d="M288.484 96.314C286.765 96.3511 285.065 95.943 283.55 95.1295C282.138 94.3616 280.978 93.203 280.21 91.7928C279.387 90.2194 278.979 88.4624 279.024 86.6876V86.2288C278.977 84.4559 279.379 82.6999 280.193 81.1236C280.943 79.7166 282.086 78.5575 283.483 77.7869C284.984 76.9685 286.674 76.5572 288.384 76.594C290.068 76.5551 291.73 76.9824 293.185 77.8286C294.541 78.6406 295.64 79.8171 296.358 81.2237C297.133 82.7768 297.519 84.494 297.485 86.2288V87.8972H283.859C283.861 88.4907 283.991 89.0767 284.239 89.6162C284.486 90.1556 284.846 90.636 285.295 91.0254C286.212 91.8411 287.407 92.274 288.635 92.2349C289.684 92.3304 290.731 92.0331 291.574 91.4007C292.179 90.8628 292.668 90.2071 293.01 89.4738L296.901 91.5175C296.471 92.28 295.958 92.9933 295.373 93.6447C294.628 94.473 293.722 95.1402 292.709 95.605C291.372 96.1554 289.928 96.3977 288.484 96.314ZM283.909 84.2852H292.676C292.642 83.786 292.509 83.2985 292.283 82.8516C292.058 82.4046 291.746 82.0072 291.365 81.6825C290.521 80.9976 289.454 80.6472 288.367 80.6982C287.262 80.6366 286.173 80.9874 285.312 81.6825C284.542 82.3499 284.042 83.2756 283.909 84.2852V84.2852Z" fill="white" fill-opacity="0.11"/>
<path d="M298.856 95.7969L305.652 86.3623L298.931 77.0862L296.852 66.0083L308.708 83.3093H309.384L313.66 77.0862H319.17L312.449 86.3623L319.254 95.7969H313.668L309.393 89.4989H308.716L296.86 107.017L298.856 95.7969Z" fill="white" fill-opacity="0.11"/>
<path d="M323.67 73.1071C323.051 73.1071 322.458 72.8622 322.02 72.426C321.582 71.9898 321.334 71.3978 321.332 70.7798C321.332 70.1603 321.578 69.5662 322.017 69.1282C322.455 68.6901 323.05 68.4441 323.67 68.4441C323.977 68.4441 324.28 68.5046 324.563 68.622C324.847 68.7395 325.104 68.9117 325.32 69.1287C325.537 69.3457 325.708 69.6033 325.825 69.8866C325.941 70.1699 326.001 70.4735 326 70.7798C326 71.397 325.754 71.989 325.317 72.4255C324.88 72.862 324.288 73.1071 323.67 73.1071V73.1071ZM323.67 68.9362C323.174 68.9295 322.695 69.1183 322.337 69.4618C321.979 69.8053 321.771 70.2758 321.758 70.7714C321.76 71.27 321.96 71.7474 322.314 72.0991C322.667 72.4509 323.146 72.6484 323.645 72.6483C324.143 72.6483 324.621 72.4506 324.973 72.0986C325.326 71.7466 325.524 71.2692 325.524 70.7714C325.521 70.2786 325.326 69.8062 324.98 69.4554C324.633 69.1046 324.163 68.9032 323.67 68.8945V68.9362Z" fill="white" fill-opacity="0.11"/>
<path d="M322.902 71.8224V69.7286H323.779C323.896 69.7266 324.013 69.7493 324.121 69.7954C324.216 69.8351 324.298 69.9018 324.355 69.9872C324.41 70.0778 324.439 70.1817 324.439 70.2875V70.2875C324.444 70.4017 324.408 70.514 324.338 70.6045C324.281 70.6805 324.203 70.7383 324.113 70.7714V70.8214C324.147 70.8203 324.181 70.8264 324.213 70.8393C324.245 70.8522 324.273 70.8718 324.297 70.8965C324.32 70.9239 324.339 70.9556 324.35 70.9899C324.362 71.0243 324.366 71.0606 324.364 71.0967V71.789H324.038V71.1384C324.038 71.0933 324.023 71.0494 323.996 71.0133C323.979 70.9956 323.958 70.982 323.935 70.9733C323.912 70.9646 323.887 70.9612 323.862 70.9632H323.228V71.7974L322.902 71.8224ZM323.228 70.7046H323.745C323.794 70.7077 323.843 70.7012 323.888 70.6854C323.934 70.6697 323.976 70.645 324.013 70.6129C324.047 70.5827 324.073 70.5453 324.091 70.5034C324.108 70.4615 324.116 70.4162 324.113 70.371V70.371C324.116 70.3257 324.108 70.2804 324.091 70.2385C324.073 70.1966 324.047 70.1592 324.013 70.129C323.976 70.0969 323.934 70.0722 323.888 70.0565C323.843 70.0407 323.794 70.0342 323.745 70.0373H323.228V70.7046Z" fill="white" fill-opacity="0.11"/>
</g>
<defs>
<clipPath id="clip0_244_180">
<rect width="153" height="41" fill="white" transform="translate(173 66)"/>
</clipPath>
</defs>
</svg>
