<svg width="191" height="175" viewBox="0 0 191 175" fill="none" xmlns="http://www.w3.org/2000/svg">
<rect width="190.667" height="174.778" rx="5" fill="#A2A9B0"/>
<g clip-path="url(#clip0_244_192)">
<path d="M18 95.7969V69.3867H20.9807V80.2894H21.5152C21.7938 79.6994 22.1852 79.1695 22.6674 78.7295C23.2463 78.1948 23.9243 77.7783 24.663 77.5033C25.6631 77.1421 26.723 76.975 27.7858 77.0111C29.0791 76.9886 30.3571 77.2927 31.5014 77.8953C32.5985 78.4902 33.5066 79.3803 34.1231 80.4646C34.8212 81.741 35.1617 83.182 35.1085 84.6355V95.7969H32.1276V84.8608C32.1276 83.0256 31.6685 81.6909 30.75 80.8567C29.7099 79.9883 28.3796 79.5443 27.0259 79.6137C26.2183 79.5823 25.4132 79.7206 24.6624 80.0194C23.9117 80.3183 23.232 80.7712 22.6674 81.3488C21.5485 82.5084 20.9974 84.2268 20.9974 86.5208V95.7969H18Z" fill="white" fill-opacity="0.11"/>
<path d="M49.6875 96.3141C47.9695 96.354 46.2701 95.9518 44.7527 95.1462C43.3411 94.3783 42.1814 93.2197 41.4128 91.8095C40.5962 90.2697 40.1881 88.5465 40.2272 86.8044V86.3123C40.1892 84.5702 40.5972 82.8474 41.4128 81.3072C42.1814 79.897 43.3411 78.7384 44.7527 77.9704C46.2721 77.1701 47.9701 76.7682 49.6875 76.8026C51.4021 76.7682 53.0973 77.1701 54.6137 77.9704C56.0252 78.7384 57.1849 79.897 57.9536 81.3072C58.7691 82.8474 59.1774 84.5702 59.1394 86.3123V86.8044C59.1785 88.5465 58.7702 90.2697 57.9536 91.8095C57.1849 93.2197 56.0252 94.3783 54.6137 95.1462C53.0987 95.9504 51.4026 96.3526 49.6875 96.3141V96.3141ZM49.6875 93.6363C50.5591 93.6777 51.4295 93.5324 52.2403 93.2101C53.051 92.8878 53.7833 92.396 54.3882 91.7678C55.6025 90.391 56.2317 88.5955 56.1418 86.7627V86.4207C56.229 84.5883 55.6002 82.7937 54.3882 81.4156C53.782 80.7891 53.0495 80.2985 52.2391 79.9764C51.4286 79.6542 50.5588 79.5079 49.6875 79.5471C48.8189 79.5103 47.9522 79.6578 47.1448 79.9798C46.3374 80.3019 45.6075 80.7913 45.0032 81.4156C43.7759 82.7862 43.1373 84.5838 43.2248 86.4207V86.7627C43.1355 88.5998 43.7744 90.3981 45.0032 91.7678C45.6062 92.3939 46.3359 92.8844 47.1436 93.2066C47.9513 93.5288 48.8186 93.6753 49.6875 93.6363Z" fill="white" fill-opacity="0.11"/>
<path d="M71.9305 96.3141C69.8816 96.3825 67.8595 95.8331 66.1274 94.7375C65.3193 94.1581 64.6463 93.4107 64.1548 92.5467C63.6633 91.6827 63.365 90.7226 63.2803 89.7324L66.1107 89.0902C66.2373 90.1229 66.6285 91.1055 67.2464 91.943C67.7771 92.6179 68.4897 93.1273 69.3004 93.4112C70.1455 93.7062 71.0353 93.8529 71.9305 93.8449C73.0838 93.9073 74.2288 93.6163 75.212 93.0108C75.5887 92.7771 75.8982 92.4498 76.1104 92.0609C76.3226 91.672 76.4302 91.2347 76.4227 90.7919C76.4551 90.3788 76.3625 89.9655 76.1571 89.6056C75.9516 89.2457 75.6427 88.9557 75.2703 88.7732C74.2683 88.306 73.206 87.9803 72.1141 87.8055L70.5695 87.5469C69.4525 87.3658 68.3617 87.0492 67.3214 86.6043C66.4099 86.2249 65.6047 85.6294 64.9753 84.8692C64.3899 84.0709 64.0952 83.0967 64.1403 82.1081C64.1113 81.3507 64.2727 80.5982 64.6096 79.9192C64.9465 79.2402 65.4481 78.6563 66.0689 78.2208C67.5787 77.2278 69.3653 76.74 71.1707 76.8277C72.9712 76.7457 74.7506 77.2428 76.2474 78.2458C77.5513 79.2123 78.4451 80.632 78.7523 82.2248L75.9551 82.9422C75.9037 82.3838 75.7315 81.8431 75.4503 81.3577C75.1692 80.8723 74.786 80.4538 74.3269 80.131C73.3744 79.5545 72.2756 79.2648 71.1623 79.2968C70.1208 79.2448 69.0854 79.4846 68.1731 79.9892C67.823 80.2036 67.537 80.5078 67.3446 80.8702C67.1523 81.2326 67.0607 81.6399 67.0794 82.0497C67.0581 82.4372 67.1432 82.8231 67.3257 83.1657C67.5082 83.5083 67.7812 83.7945 68.1148 83.9933C68.979 84.4649 69.9205 84.7785 70.8951 84.9192L72.4399 85.1778C73.6437 85.3748 74.8263 85.6848 75.9718 86.1038C76.9362 86.436 77.7988 87.0105 78.4767 87.7721C79.1225 88.5854 79.4516 89.6047 79.4034 90.6417C79.4397 91.4499 79.2741 92.2544 78.9213 92.9826C78.5685 93.7107 78.0398 94.3397 77.3828 94.8126C75.7741 95.8854 73.8622 96.4119 71.9305 96.3141V96.3141Z" fill="white" fill-opacity="0.11"/>
<path d="M90.7763 95.7969C90.3359 95.8293 89.8934 95.772 89.4758 95.6286C89.0581 95.4853 88.6741 95.2587 88.3466 94.9627C88.0554 94.6424 87.8314 94.2669 87.688 93.8585C87.5446 93.4502 87.4847 93.0173 87.5117 92.5853V79.9475H81.959V77.3365H87.5117V70.7715H90.4924V77.3281H96.5375V79.9475H90.4924V92.0932C90.4679 92.244 90.4789 92.3985 90.5246 92.5444C90.5702 92.6903 90.6492 92.8236 90.7553 92.9336C90.8615 93.0437 90.9919 93.1276 91.1361 93.1786C91.2803 93.2297 91.4344 93.2464 91.5862 93.2276H95.7026V95.7969H90.7763Z" fill="white" fill-opacity="0.11"/>
<path d="M100.854 103.305V77.0446H105.539V79.3052H106.215C106.716 78.5051 107.403 77.8382 108.219 77.3616C109.414 76.7313 110.761 76.4426 112.11 76.5274C113.576 76.5219 115.018 76.9078 116.285 77.6452C117.6 78.4242 118.673 79.5536 119.382 80.9069C120.2 82.5177 120.602 84.3069 120.551 86.1122V86.7211C120.602 88.5264 120.2 90.3156 119.382 91.9264C118.673 93.2797 117.6 94.409 116.285 95.1881C115.017 95.9229 113.576 96.3059 112.11 96.2975C111.143 96.3246 110.178 96.1922 109.254 95.9054C108.577 95.693 107.95 95.3469 107.409 94.8877C106.979 94.5185 106.603 94.0918 106.29 93.6198H105.614V103.305H100.854ZM110.674 92.1349C111.351 92.157 112.026 92.0429 112.659 91.7993C113.291 91.5557 113.869 91.1876 114.356 90.7168C114.873 90.1594 115.269 89.5011 115.519 88.7833C115.769 88.0655 115.868 87.3037 115.809 86.5459V86.1706C115.861 85.4183 115.758 84.6633 115.505 83.9528C115.252 83.2423 114.855 82.5916 114.339 82.0414C113.853 81.5742 113.278 81.2082 112.649 80.9648C112.02 80.7213 111.348 80.6052 110.674 80.6232C109.999 80.6052 109.328 80.7213 108.698 80.9648C108.069 81.2082 107.495 81.5742 107.008 82.0414C106.492 82.5916 106.095 83.2423 105.842 83.9528C105.589 84.6633 105.486 85.4183 105.539 86.1706V86.5459C105.48 87.305 105.581 88.0679 105.834 88.786C106.087 89.5042 106.487 90.1617 107.008 90.7168C107.492 91.19 108.065 91.5621 108.695 91.8113C109.324 92.0605 109.997 92.1819 110.674 92.1683V92.1349Z" fill="white" fill-opacity="0.11"/>
<path d="M133.484 96.314C131.765 96.3511 130.065 95.943 128.55 95.1295C127.138 94.3616 125.978 93.203 125.21 91.7928C124.387 90.2194 123.979 88.4624 124.024 86.6876V86.2288C123.977 84.4559 124.379 82.6999 125.193 81.1236C125.943 79.7166 127.086 78.5575 128.483 77.7869C129.984 76.9685 131.674 76.5572 133.384 76.594C135.068 76.5551 136.73 76.9824 138.185 77.8286C139.541 78.6406 140.64 79.8171 141.358 81.2237C142.133 82.7768 142.519 84.494 142.485 86.2288V87.8972H128.859C128.861 88.4907 128.991 89.0767 129.239 89.6162C129.486 90.1556 129.846 90.636 130.295 91.0254C131.212 91.8411 132.407 92.274 133.635 92.2349C134.684 92.3304 135.731 92.0331 136.574 91.4007C137.179 90.8628 137.668 90.2071 138.01 89.4738L141.901 91.5175C141.471 92.28 140.958 92.9933 140.373 93.6447C139.628 94.473 138.722 95.1402 137.709 95.605C136.372 96.1554 134.928 96.3977 133.484 96.314ZM128.909 84.2852H137.676C137.642 83.786 137.509 83.2985 137.283 82.8516C137.058 82.4046 136.746 82.0072 136.365 81.6825C135.521 80.9976 134.454 80.6472 133.367 80.6982C132.262 80.6366 131.173 80.9874 130.312 81.6825C129.542 82.3499 129.042 83.2756 128.909 84.2852V84.2852Z" fill="white" fill-opacity="0.11"/>
<path d="M143.856 95.7969L150.652 86.3623L143.931 77.0862L141.852 66.0083L153.708 83.3093H154.384L158.66 77.0862H164.17L157.449 86.3623L164.254 95.7969H158.668L154.393 89.4989H153.716L141.86 107.017L143.856 95.7969Z" fill="white" fill-opacity="0.11"/>
<path d="M168.67 73.1071C168.051 73.1071 167.458 72.8622 167.02 72.426C166.582 71.9898 166.334 71.3978 166.332 70.7798C166.332 70.1603 166.578 69.5662 167.017 69.1282C167.455 68.6901 168.05 68.4441 168.67 68.4441C168.977 68.4441 169.28 68.5046 169.563 68.622C169.847 68.7395 170.104 68.9117 170.32 69.1287C170.537 69.3457 170.708 69.6033 170.825 69.8866C170.941 70.1699 171.001 70.4735 171 70.7798C171 71.397 170.754 71.989 170.317 72.4255C169.88 72.862 169.288 73.1071 168.67 73.1071V73.1071ZM168.67 68.9362C168.174 68.9295 167.695 69.1183 167.337 69.4618C166.979 69.8053 166.771 70.2758 166.758 70.7714C166.76 71.27 166.96 71.7474 167.314 72.0991C167.667 72.4509 168.146 72.6484 168.645 72.6483C169.143 72.6483 169.621 72.4506 169.973 72.0986C170.326 71.7466 170.524 71.2692 170.524 70.7714C170.521 70.2786 170.326 69.8062 169.98 69.4554C169.633 69.1046 169.163 68.9032 168.67 68.8945V68.9362Z" fill="white" fill-opacity="0.11"/>
<path d="M167.902 71.8224V69.7286H168.779C168.896 69.7266 169.013 69.7493 169.121 69.7954C169.216 69.8351 169.298 69.9018 169.355 69.9872C169.41 70.0778 169.439 70.1817 169.439 70.2875V70.2875C169.444 70.4017 169.408 70.514 169.338 70.6045C169.281 70.6805 169.203 70.7383 169.113 70.7714V70.8214C169.147 70.8203 169.181 70.8264 169.213 70.8393C169.245 70.8522 169.273 70.8718 169.297 70.8965C169.32 70.9239 169.339 70.9556 169.35 70.9899C169.362 71.0243 169.366 71.0606 169.364 71.0967V71.789H169.038V71.1384C169.038 71.0933 169.023 71.0494 168.996 71.0133C168.979 70.9956 168.958 70.982 168.935 70.9733C168.912 70.9646 168.887 70.9612 168.862 70.9632H168.228V71.7974L167.902 71.8224ZM168.228 70.7046H168.745C168.794 70.7077 168.843 70.7012 168.888 70.6854C168.934 70.6697 168.976 70.645 169.013 70.6129C169.047 70.5827 169.073 70.5453 169.091 70.5034C169.108 70.4615 169.116 70.4162 169.113 70.371V70.371C169.116 70.3257 169.108 70.2804 169.091 70.2385C169.073 70.1966 169.047 70.1592 169.013 70.129C168.976 70.0969 168.934 70.0722 168.888 70.0565C168.843 70.0407 168.794 70.0342 168.745 70.0373H168.228V70.7046Z" fill="white" fill-opacity="0.11"/>
</g>
<defs>
<clipPath id="clip0_244_192">
<rect width="153" height="41" fill="white" transform="translate(18 66)"/>
</clipPath>
</defs>
</svg>
