<svg width="294" height="387" viewBox="0 0 294 387" fill="none" xmlns="http://www.w3.org/2000/svg">
<rect width="294" height="387" rx="5" fill="#A2A9B0"/>
<g clip-path="url(#clip0_244_236)">
<path d="M70 202.797V176.387H72.9807V187.289H73.5152C73.7938 186.699 74.1852 186.169 74.6674 185.73C75.2463 185.195 75.9243 184.778 76.663 184.503C77.6631 184.142 78.723 183.975 79.7858 184.011C81.0791 183.989 82.3571 184.293 83.5014 184.895C84.5985 185.49 85.5066 186.38 86.1231 187.465C86.8212 188.741 87.1617 190.182 87.1085 191.636V202.797H84.1276V191.861C84.1276 190.026 83.6685 188.691 82.75 187.857C81.7099 186.988 80.3796 186.544 79.0259 186.614C78.2183 186.582 77.4132 186.721 76.6624 187.019C75.9117 187.318 75.232 187.771 74.6674 188.349C73.5485 189.508 72.9974 191.227 72.9974 193.521V202.797H70Z" fill="white" fill-opacity="0.11"/>
<path d="M101.687 203.314C99.9695 203.354 98.2701 202.952 96.7527 202.146C95.3411 201.378 94.1814 200.22 93.4128 198.809C92.5962 197.27 92.1881 195.547 92.2272 193.804V193.312C92.1892 191.57 92.5972 189.847 93.4128 188.307C94.1814 186.897 95.3411 185.738 96.7527 184.97C98.2721 184.17 99.9701 183.768 101.687 183.803C103.402 183.768 105.097 184.17 106.614 184.97C108.025 185.738 109.185 186.897 109.954 188.307C110.769 189.847 111.177 191.57 111.139 193.312V193.804C111.179 195.547 110.77 197.27 109.954 198.809C109.185 200.22 108.025 201.378 106.614 202.146C105.099 202.95 103.403 203.353 101.687 203.314V203.314ZM101.687 200.636C102.559 200.678 103.43 200.532 104.24 200.21C105.051 199.888 105.783 199.396 106.388 198.768C107.603 197.391 108.232 195.595 108.142 193.763V193.421C108.229 191.588 107.6 189.794 106.388 188.416C105.782 187.789 105.05 187.299 104.239 186.976C103.429 186.654 102.559 186.508 101.687 186.547C100.819 186.51 99.9522 186.658 99.1448 186.98C98.3374 187.302 97.6075 187.791 97.0032 188.416C95.7759 189.786 95.1373 191.584 95.2248 193.421V193.763C95.1355 195.6 95.7744 197.398 97.0032 198.768C97.6062 199.394 98.3359 199.884 99.1436 200.207C99.9513 200.529 100.819 200.675 101.687 200.636Z" fill="white" fill-opacity="0.11"/>
<path d="M123.93 203.314C121.882 203.382 119.86 202.833 118.127 201.738C117.319 201.158 116.646 200.411 116.155 199.547C115.663 198.683 115.365 197.723 115.28 196.732L118.111 196.09C118.237 197.123 118.629 198.105 119.246 198.943C119.777 199.618 120.49 200.127 121.3 200.411C122.146 200.706 123.035 200.853 123.93 200.845C125.084 200.907 126.229 200.616 127.212 200.011C127.589 199.777 127.898 199.45 128.11 199.061C128.323 198.672 128.43 198.235 128.423 197.792C128.455 197.379 128.363 196.966 128.157 196.606C127.952 196.246 127.643 195.956 127.27 195.773C126.268 195.306 125.206 194.98 124.114 194.805L122.57 194.547C121.453 194.366 120.362 194.049 119.321 193.604C118.41 193.225 117.605 192.629 116.975 191.869C116.39 191.071 116.095 190.097 116.14 189.108C116.111 188.351 116.273 187.598 116.61 186.919C116.946 186.24 117.448 185.656 118.069 185.221C119.579 184.228 121.365 183.74 123.171 183.828C124.971 183.746 126.751 184.243 128.247 185.246C129.551 186.212 130.445 187.632 130.752 189.225L127.955 189.942C127.904 189.384 127.731 188.843 127.45 188.358C127.169 187.872 126.786 187.454 126.327 187.131C125.374 186.554 124.276 186.265 123.162 186.297C122.121 186.245 121.085 186.485 120.173 186.989C119.823 187.204 119.537 187.508 119.345 187.87C119.152 188.233 119.061 188.64 119.079 189.05C119.058 189.437 119.143 189.823 119.326 190.166C119.508 190.508 119.781 190.794 120.115 190.993C120.979 191.465 121.92 191.779 122.895 191.919L124.44 192.178C125.644 192.375 126.826 192.685 127.972 193.104C128.936 193.436 129.799 194.011 130.477 194.772C131.123 195.585 131.452 196.605 131.403 197.642C131.44 198.45 131.274 199.254 130.921 199.983C130.569 200.711 130.04 201.34 129.383 201.813C127.774 202.885 125.862 203.412 123.93 203.314V203.314Z" fill="white" fill-opacity="0.11"/>
<path d="M142.776 202.797C142.336 202.829 141.893 202.772 141.476 202.629C141.058 202.485 140.674 202.259 140.347 201.963C140.055 201.642 139.831 201.267 139.688 200.859C139.545 200.45 139.485 200.017 139.512 199.585V186.947H133.959V184.336H139.512V177.771H142.492V184.328H148.538V186.947H142.492V199.093C142.468 199.244 142.479 199.399 142.525 199.544C142.57 199.69 142.649 199.824 142.755 199.934C142.861 200.044 142.992 200.128 143.136 200.179C143.28 200.23 143.434 200.246 143.586 200.228H147.703V202.797H142.776Z" fill="white" fill-opacity="0.11"/>
<path d="M152.854 210.305V184.045H157.539V186.305H158.215C158.716 185.505 159.403 184.838 160.219 184.362C161.414 183.731 162.761 183.443 164.11 183.527C165.576 183.522 167.018 183.908 168.285 184.645C169.6 185.424 170.673 186.554 171.382 187.907C172.2 189.518 172.602 191.307 172.551 193.112V193.721C172.602 195.526 172.2 197.316 171.382 198.926C170.673 200.28 169.6 201.409 168.285 202.188C167.017 202.923 165.576 203.306 164.11 203.297C163.143 203.325 162.178 203.192 161.254 202.905C160.577 202.693 159.95 202.347 159.409 201.888C158.979 201.518 158.603 201.092 158.29 200.62H157.614V210.305H152.854ZM162.674 199.135C163.351 199.157 164.026 199.043 164.659 198.799C165.291 198.556 165.869 198.188 166.356 197.717C166.873 197.159 167.269 196.501 167.519 195.783C167.769 195.065 167.868 194.304 167.809 193.546V193.171C167.861 192.418 167.758 191.663 167.505 190.953C167.252 190.242 166.855 189.592 166.339 189.041C165.853 188.574 165.278 188.208 164.649 187.965C164.02 187.721 163.348 187.605 162.674 187.623C161.999 187.605 161.328 187.721 160.698 187.965C160.069 188.208 159.495 188.574 159.008 189.041C158.492 189.592 158.095 190.242 157.842 190.953C157.589 191.663 157.486 192.418 157.539 193.171V193.546C157.48 194.305 157.581 195.068 157.834 195.786C158.087 196.504 158.487 197.162 159.008 197.717C159.492 198.19 160.065 198.562 160.695 198.811C161.324 199.061 161.997 199.182 162.674 199.168V199.135Z" fill="white" fill-opacity="0.11"/>
<path d="M185.484 203.314C183.765 203.351 182.065 202.943 180.55 202.13C179.138 201.362 177.978 200.203 177.21 198.793C176.387 197.219 175.979 195.462 176.024 193.688V193.229C175.977 191.456 176.379 189.7 177.193 188.124C177.943 186.717 179.086 185.557 180.483 184.787C181.984 183.969 183.674 183.557 185.384 183.594C187.068 183.555 188.73 183.982 190.185 184.829C191.541 185.641 192.64 186.817 193.358 188.224C194.133 189.777 194.519 191.494 194.485 193.229V194.897H180.859C180.861 195.491 180.991 196.077 181.239 196.616C181.486 197.156 181.846 197.636 182.295 198.025C183.212 198.841 184.407 199.274 185.635 199.235C186.684 199.33 187.731 199.033 188.574 198.401C189.179 197.863 189.668 197.207 190.01 196.474L193.901 198.518C193.471 199.28 192.958 199.993 192.373 200.645C191.628 201.473 190.722 202.14 189.709 202.605C188.372 203.155 186.928 203.398 185.484 203.314ZM180.909 191.285H189.676C189.642 190.786 189.509 190.299 189.283 189.852C189.058 189.405 188.746 189.007 188.365 188.683C187.521 187.998 186.454 187.647 185.367 187.698C184.262 187.637 183.173 187.987 182.312 188.683C181.542 189.35 181.042 190.276 180.909 191.285V191.285Z" fill="white" fill-opacity="0.11"/>
<path d="M195.856 202.797L202.652 193.362L195.931 184.086L193.852 173.008L205.708 190.309H206.384L210.66 184.086H216.17L209.449 193.362L216.254 202.797H210.668L206.393 196.499H205.716L193.86 214.017L195.856 202.797Z" fill="white" fill-opacity="0.11"/>
<path d="M220.67 180.107C220.051 180.107 219.458 179.862 219.02 179.426C218.582 178.99 218.334 178.398 218.332 177.78C218.332 177.16 218.578 176.566 219.017 176.128C219.455 175.69 220.05 175.444 220.67 175.444C220.977 175.444 221.28 175.505 221.563 175.622C221.847 175.74 222.104 175.912 222.32 176.129C222.537 176.346 222.708 176.603 222.825 176.887C222.941 177.17 223.001 177.473 223 177.78C223 178.397 222.754 178.989 222.317 179.425C221.88 179.862 221.288 180.107 220.67 180.107V180.107ZM220.67 175.936C220.174 175.929 219.695 176.118 219.337 176.462C218.979 176.805 218.771 177.276 218.758 177.771C218.76 178.27 218.96 178.747 219.314 179.099C219.667 179.451 220.146 179.648 220.645 179.648C221.143 179.648 221.621 179.451 221.973 179.099C222.326 178.747 222.524 178.269 222.524 177.771C222.521 177.279 222.326 176.806 221.98 176.455C221.633 176.105 221.163 175.903 220.67 175.895V175.936Z" fill="white" fill-opacity="0.11"/>
<path d="M219.902 178.822V176.729H220.779C220.896 176.727 221.013 176.749 221.121 176.795C221.216 176.835 221.298 176.902 221.355 176.987C221.41 177.078 221.439 177.182 221.439 177.288V177.288C221.444 177.402 221.408 177.514 221.338 177.605C221.281 177.68 221.203 177.738 221.113 177.771V177.821C221.147 177.82 221.181 177.826 221.213 177.839C221.245 177.852 221.273 177.872 221.297 177.897C221.32 177.924 221.339 177.956 221.35 177.99C221.362 178.024 221.366 178.061 221.364 178.097V178.789H221.038V178.138C221.038 178.093 221.023 178.049 220.996 178.013C220.979 177.996 220.958 177.982 220.935 177.973C220.912 177.965 220.887 177.961 220.862 177.963H220.228V178.797L219.902 178.822ZM220.228 177.705H220.745C220.794 177.708 220.843 177.701 220.888 177.685C220.934 177.67 220.976 177.645 221.013 177.613C221.047 177.583 221.073 177.545 221.091 177.503C221.108 177.462 221.116 177.416 221.113 177.371V177.371C221.116 177.326 221.108 177.28 221.091 177.239C221.073 177.197 221.047 177.159 221.013 177.129C220.976 177.097 220.934 177.072 220.888 177.056C220.843 177.041 220.794 177.034 220.745 177.037H220.228V177.705Z" fill="white" fill-opacity="0.11"/>
</g>
<defs>
<clipPath id="clip0_244_236">
<rect width="153" height="41" fill="white" transform="translate(70 173)"/>
</clipPath>
</defs>
</svg>
