<svg width="81" height="80" viewBox="0 0 81 80" fill="none" xmlns="http://www.w3.org/2000/svg">
<circle cx="40.5" cy="40" r="40" fill="#3A7AFC" fill-opacity="0.05"/>
<path d="M47.568 23.3333H33.4346C28.8346 23.3333 27.168 24.9999 27.168 29.6833V50.3166C27.168 54.9999 28.8346 56.6666 33.4346 56.6666H47.5513C52.168 56.6666 53.8346 54.9999 53.8346 50.3166V29.6833C53.8346 24.9999 52.168 23.3333 47.568 23.3333ZM40.5013 52.1666C38.9013 52.1666 37.5846 50.8499 37.5846 49.2499C37.5846 47.6499 38.9013 46.3333 40.5013 46.3333C42.1013 46.3333 43.418 47.6499 43.418 49.2499C43.418 50.8499 42.1013 52.1666 40.5013 52.1666ZM43.8346 30.4166H37.168C36.4846 30.4166 35.918 29.8499 35.918 29.1666C35.918 28.4833 36.4846 27.9166 37.168 27.9166H43.8346C44.518 27.9166 45.0846 28.4833 45.0846 29.1666C45.0846 29.8499 44.518 30.4166 43.8346 30.4166Z" fill="#D80C56"/>
</svg>
