<svg width="54" height="54" viewBox="0 0 54 54" fill="none" xmlns="http://www.w3.org/2000/svg">
<circle cx="27.2236" cy="26.75" r="26.25" fill="white" fill-opacity="0.05" stroke="#15C5CE"/>
<path fill-rule="evenodd" clip-rule="evenodd" d="M37.6657 24.6583C37.8465 25.1773 37.59 25.7511 37.0926 25.9398L26.5511 29.9398C26.3396 30.0201 26.1077 30.0201 25.8961 29.9398L15.3547 25.9398C14.8573 25.7511 14.6007 25.1773 14.7816 24.6583C14.9625 24.1392 15.5123 23.8715 16.0097 24.0602L26.2236 27.9359L36.4376 24.0602C36.935 23.8715 37.4848 24.1392 37.6657 24.6583ZM37.6657 28.6583C37.8465 29.1773 37.59 29.7511 37.0926 29.9398L26.5511 33.9398C26.3396 34.0201 26.1077 34.0201 25.8961 33.9398L15.3547 29.9398C14.8573 29.7511 14.6007 29.1773 14.7816 28.6583C14.9625 28.1392 15.5123 27.8715 16.0097 28.0602L26.2236 31.9359L36.4376 28.0602C36.935 27.8715 37.4848 28.1392 37.6657 28.6583ZM14.7816 32.6583C14.9625 32.1392 15.5123 31.8715 16.0097 32.0602L26.2236 35.9359L36.4376 32.0602C36.935 31.8715 37.4848 32.1392 37.6657 32.6583C37.8465 33.1773 37.59 33.7511 37.0926 33.9398L26.5511 37.9398C26.3396 38.0201 26.1077 38.0201 25.8961 37.9398L15.3547 33.9398C14.8573 33.7511 14.6007 33.1773 14.7816 32.6583Z" fill="white"/>
<path d="M26.5511 16.0602C26.3396 15.9799 26.1077 15.9799 25.8961 16.0602L15.3547 20.0602C14.976 20.2039 14.7239 20.5795 14.7239 21C14.7239 21.4205 14.976 21.7961 15.3547 21.9398L25.8961 25.9398C26.1077 26.0201 26.3396 26.0201 26.5511 25.9398L37.0926 21.9398C37.4713 21.7961 37.7234 21.4205 37.7234 21C37.7234 20.5795 37.4713 20.2039 37.0926 20.0602L26.5511 16.0602Z" fill="white"/>
</svg>
