<svg width="36" height="36" viewBox="0 0 36 36" fill="none" xmlns="http://www.w3.org/2000/svg">
<path d="M24.0704 20.7056H24.059H24.0704ZM8.25792 27.3327C8.32988 27.3464 8.72378 27.3691 8.72378 27.2873C8.72378 27.2396 8.65182 27.2419 8.65182 27.2419C8.66129 26.8784 9.04571 26.7875 9.3203 26.9783C9.39598 27.0306 9.46594 27.0938 9.52861 27.1669C9.1404 27.1919 8.6253 27.5099 8.65939 27.9711C8.67895 28.0913 8.72099 28.2048 8.78231 28.3028C8.84367 28.4007 8.92269 28.4808 9.01352 28.5368C9.12704 28.6387 9.25633 28.7125 9.39384 28.7538C9.53136 28.7953 9.67439 28.8032 9.81456 28.7777C10.0642 28.7014 10.2838 28.523 10.4357 28.2733C10.7789 28.2864 11.1147 28.1517 11.3826 27.8939C11.3938 27.8831 11.4032 27.8696 11.41 27.8545C11.4169 27.8392 11.4211 27.8225 11.4223 27.8053C11.4223 27.7258 11.4223 27.7303 11.0436 27.226C11.0328 27.2115 11.0194 27.2006 11.0044 27.1938C10.9894 27.187 10.9732 27.1845 10.9572 27.1868C10.9413 27.1888 10.926 27.1956 10.9127 27.2065C10.8994 27.2172 10.8884 27.2318 10.8807 27.2487C10.8742 27.2585 10.8685 27.2693 10.8637 27.2805C10.8336 27.3483 10.785 27.4014 10.726 27.4314C10.667 27.4611 10.6013 27.4656 10.5399 27.4441C10.3505 27.3782 10.1062 26.7761 9.66117 26.4172C9.27296 26.1036 8.75218 26.0105 8.3848 26.3831C8.22666 26.5459 8.11424 26.7632 8.06287 27.0056C8.04242 27.0803 8.04648 27.1616 8.07423 27.2328C8.12399 27.2905 8.18889 27.3259 8.25792 27.3327ZM8.96996 28.1756C8.91804 28.1311 8.88199 28.0648 8.86901 27.9898C8.85603 27.9149 8.86705 27.8369 8.89989 27.7712C8.98387 27.6318 9.10056 27.526 9.23508 27.4668C9.12655 27.6875 9.03769 27.9212 8.96996 28.1642V28.1756ZM10.7538 27.8166C10.7993 27.6531 10.7538 27.7099 10.8296 27.669C10.887 27.6347 10.9389 27.5885 10.983 27.5327L11.1553 27.778C11.0126 27.8865 10.8548 27.9635 10.6895 28.0052C10.7084 27.9461 10.7387 27.8553 10.7538 27.8053V27.8166ZM10.0683 27.2373C10.2482 27.5077 10.3978 27.7485 10.6724 27.7212C10.6332 27.8191 10.6015 27.9209 10.5777 28.0257C10.4395 28.037 10.4205 27.9984 10.3656 28.0257C10.2577 28.0756 10.0797 28.5414 9.64791 28.5391C9.67477 28.4669 9.69202 28.3903 9.69904 28.3119C9.8212 28.2824 9.93558 28.2176 10.0323 28.1234C10.0738 28.0802 10.1007 28.0205 10.1081 27.9552C10.1081 27.8757 10.0854 27.7735 9.94523 27.6394C9.99742 27.5067 10.0386 27.3683 10.0683 27.226V27.2373ZM9.43203 28.0961C9.26538 27.9893 9.54944 27.8007 9.73313 27.8076C9.77531 27.8079 9.81659 27.8227 9.85209 27.8499C9.88762 27.8772 9.91596 27.9162 9.93386 27.962C9.90856 28.0109 9.87519 28.0531 9.83584 28.0858C9.79648 28.1188 9.75196 28.1417 9.70496 28.1531C9.658 28.1646 9.60956 28.1644 9.56263 28.1527C9.51566 28.141 9.47124 28.1179 9.43203 28.0847V28.0961ZM9.65549 26.7057C9.78405 26.8369 9.90084 26.9838 10.0039 27.1442C9.94399 27.2752 9.89819 27.4149 9.86758 27.5599C9.78798 27.5325 9.70455 27.5251 9.62247 27.5379C9.54038 27.5508 9.46136 27.5838 9.39037 27.6349C9.04382 27.8621 9.12525 28.3596 9.60625 28.3028C9.57798 28.3681 9.55694 28.4376 9.54376 28.5096C9.3517 28.4636 9.17214 28.3613 9.02109 28.212C9.1553 27.9617 9.25984 27.6902 9.33166 27.4054C9.40527 27.3649 9.48491 27.3424 9.5659 27.3392C9.64688 27.3361 9.72755 27.3524 9.8032 27.3873L9.84296 27.2078L9.8013 27.1851C9.7123 27.1124 9.67253 27.0556 9.57027 26.9579C9.60821 26.8749 9.63686 26.7863 9.65549 26.6943V26.7057ZM8.92072 26.3422C9.15771 26.3473 9.38716 26.4429 9.57595 26.6148C9.54204 26.7074 9.51663 26.8041 9.5002 26.9033C9.40944 26.818 9.30233 26.7608 9.1886 26.7375C9.07487 26.714 8.95808 26.725 8.84876 26.7693C8.8887 26.6315 8.91291 26.4878 8.92072 26.3422ZM8.48706 26.5194C8.59204 26.4213 8.7182 26.3615 8.85066 26.3467C8.79188 26.4995 8.75539 26.6631 8.74272 26.8306C8.68628 26.8712 8.64011 26.9295 8.60909 26.9991C8.57807 27.0686 8.56336 27.147 8.5666 27.226C8.4339 27.2347 8.30113 27.2108 8.17649 27.1555C8.20466 26.9031 8.31494 26.6744 8.48328 26.5194H8.48706ZM5.65785 26.14C5.31698 25.9628 4.55949 26.4876 4.42125 26.7693C4.40125 26.8314 4.40125 26.9003 4.42125 26.9624C4.54056 27.5054 5.65406 29.4229 5.86048 29.7205C5.89646 29.775 5.9457 29.7 5.9135 29.6364C5.81503 29.441 5.82639 29.8341 6.33012 27.878C6.37677 27.856 6.42023 27.8254 6.45889 27.7871C6.47645 27.7636 6.48616 27.7333 6.48616 27.7019C6.48616 27.6705 6.47645 27.64 6.45889 27.6167C6.44168 27.5912 6.42198 27.5682 6.40019 27.5486L6.51949 27.0192L6.99292 27.3327C6.89717 27.6197 6.82734 27.9183 6.78461 28.2233C6.59366 28.3058 6.41472 28.424 6.25437 28.5732C6.14264 28.7209 6.31876 28.9935 6.42859 29.1571C6.53843 29.3206 6.63122 29.432 6.65205 29.457C6.67288 29.4819 6.73916 29.457 6.73348 29.4161C6.72146 29.3831 6.70549 29.3526 6.68614 29.3252C6.5835 29.1336 6.49542 28.9314 6.42291 28.7209C6.57007 28.6152 6.72546 28.527 6.88687 28.4573C6.94558 28.4323 7.12737 28.3642 7.17661 28.4005C7.41956 28.5541 7.67297 28.6824 7.9341 28.7845C7.94463 28.7905 7.95675 28.7913 7.96774 28.7865C7.97876 28.7818 7.98778 28.7722 7.9928 28.7595C7.99783 28.7468 7.99845 28.7322 7.99452 28.7191C7.99063 28.7059 7.98251 28.6951 7.97197 28.6891L7.64436 28.4505C7.71408 28.2608 7.75881 28.0592 7.77692 27.853L8.58554 28.3778C8.63477 28.4119 8.67265 28.3187 8.63667 28.2937C8.60069 28.2688 6.14643 26.3967 5.65785 26.14ZM5.37001 26.3808C5.43608 26.3569 5.50653 26.3569 5.57263 26.3808C5.61619 26.4035 5.72224 26.4717 5.86616 26.5671C5.81761 26.7278 5.78456 26.8948 5.76769 27.0647C5.64081 26.9783 5.56506 26.9124 5.46469 26.9329C5.40998 26.9476 5.35878 26.9772 5.31509 27.0192C5.33403 26.842 5.35107 26.7057 5.37001 26.3808ZM4.61252 26.8806C4.80891 26.6559 5.04718 26.4908 5.30751 26.399C5.20642 26.9349 5.13556 27.4783 5.09542 28.0257C4.90446 27.6629 4.74336 27.2786 4.61441 26.8784L4.61252 26.8806ZM5.47227 28.7913C5.36811 28.5845 5.25449 28.3551 5.14655 28.1302C5.21093 27.8053 5.23176 27.6553 5.27153 27.3486C5.37514 27.5643 5.49492 27.768 5.62944 27.9575C5.55308 28.228 5.50102 28.5075 5.47416 28.7913H5.47227ZM5.80367 29.4456C5.73549 29.3161 5.64838 29.1412 5.53476 28.9162C5.60665 28.6311 5.65424 28.338 5.67679 28.0416C5.71845 28.162 6.08962 27.9893 6.18999 27.9439C6.11613 28.2233 5.85858 29.1957 5.80556 29.4456H5.80367ZM5.74686 27.9711C5.62948 27.7275 5.52574 27.4747 5.43629 27.2146L5.49499 27.176C5.5215 27.1941 6.16915 27.6531 6.2165 27.6894C6.06889 27.8021 5.91219 27.8963 5.74875 27.9711H5.74686ZM6.31497 27.4713C6.17294 27.3577 5.97978 27.2191 5.83207 27.1169C5.88258 26.956 5.91571 26.788 5.93055 26.6171L6.46836 26.9806C6.45889 27.0669 6.39451 27.2441 6.32633 27.4713H6.31497ZM7.56861 28.3801L7.27698 28.1688C7.14738 28.1074 7.00318 28.1074 6.87362 28.1688C6.94702 27.9031 7.00025 27.6301 7.03269 27.3532L7.71821 27.8076C7.64818 27.9929 7.60156 28.1896 7.57997 28.3914L7.56861 28.3801Z" fill="black"/>
<path d="M35.8781 29.1889C35.5713 25.7629 32.9275 20.4943 31.3481 17.6159C32.23 17.7005 33.1151 17.727 33.9991 17.6954C34.2512 17.6954 34.9102 17.6408 35.0372 17.6113C35.1109 17.5931 35.1223 17.5091 35.0107 17.5045C34.8988 17.5 34.1035 17.4545 33.9957 17.4523H32.0696C31.7742 17.4659 31.3121 17.4977 31.2856 17.4977C30.7175 16.4595 30.3217 15.8097 30.3179 15.8074C30.3137 15.8021 30.3083 15.798 30.3026 15.7953C30.2968 15.7927 30.2906 15.7915 30.2843 15.7919C30.2782 15.7925 30.2722 15.7944 30.2666 15.798C30.2611 15.8014 30.2564 15.8061 30.2526 15.812C30.2488 15.8178 30.2461 15.8247 30.2446 15.8318C30.2432 15.8392 30.243 15.8466 30.2443 15.854C30.2454 15.8612 30.2479 15.8682 30.2513 15.8743C30.255 15.8803 30.2595 15.8855 30.2649 15.8892C30.352 15.9733 34.1792 22.6822 35.3495 27.3032C35.8137 29.1366 36.0881 31.438 34.5921 32.0742C31.0394 33.5963 3.21506 34.0916 0.584711 32.3014C0.219224 32.0537 0.134007 31.538 0.205968 30.8428C0.317697 29.8773 0.751351 28.5709 1.27402 27.1078C1.86297 27.7894 6.74874 33.1715 7.54031 32.9693C8.33188 32.7671 12.784 30.2862 12.9677 29.8114C13.0744 29.4816 13.1309 29.1313 13.1344 28.7777C13.1568 28.7406 13.1672 28.6951 13.1638 28.6495C13.1603 28.604 13.1431 28.5615 13.1154 28.53C12.8219 28.1801 6.99871 22.6413 6.62375 22.6572C6.36242 22.6708 5.88899 22.9934 5.66364 23.1525C5.59058 23.009 5.48181 22.8969 5.35269 22.8315C5.22354 22.7662 5.08061 22.7515 4.94403 22.789C4.81529 22.8512 4.69998 22.948 4.60684 23.0714C4.51367 23.195 4.44508 23.3423 4.40621 23.5023C4.40835 23.5146 4.41396 23.5256 4.42205 23.5336C4.43014 23.5415 4.4403 23.5457 4.45073 23.5457C4.4612 23.5457 4.47132 23.5415 4.47941 23.5336C4.48754 23.5256 4.49311 23.5146 4.49522 23.5023C4.60915 23.2712 4.78971 23.0983 5.00273 23.0161C5.09136 22.9999 5.18195 23.0141 5.2641 23.057C5.34622 23.1 5.41649 23.1703 5.46669 23.2592L3.36088 24.3384C3.24908 24.2006 3.1095 24.0995 2.95562 24.0453C2.59582 23.9317 2.35344 24.2157 2.20951 24.6315C2.20636 24.6434 2.20672 24.6563 2.21056 24.668C2.21439 24.6797 2.22148 24.6894 2.2306 24.6954C2.23972 24.7017 2.25032 24.7038 2.26063 24.7017C2.27093 24.6996 2.28031 24.6932 2.28716 24.6837C2.52954 24.2634 2.80981 24.1203 3.145 24.4565C2.73974 24.6723 2.17353 24.9791 1.77585 25.2153C1.80426 25.1608 5.89088 16.2823 5.89088 16.2595C6.07079 15.8597 6.43249 15.144 6.80555 15.0509C6.97419 15.0068 7.14621 14.9839 7.31875 14.9827C7.05552 15.5053 4.91941 19.7537 4.91562 20.3535C4.91562 21.035 5.01409 20.9283 5.31709 21.035C5.62008 21.1418 22.5745 21.0169 22.6048 21.0169C22.8984 21.0169 24.0459 20.9714 24.152 20.8783C24.4815 20.5875 24.4076 20.1536 24.2637 19.6969C24.2296 19.5879 24.0573 19.1357 23.8263 18.5314C24.8205 18.1725 25.5685 18.6291 25.6367 20.5761C25.7048 22.2596 25.1519 22.773 24.0933 22.7003C23.243 22.6413 22.656 22.3414 22.4704 22.739C22.2621 23.182 22.8378 24.1771 23.0877 24.5906C23.0517 24.5906 21.4667 24.5519 21.0671 24.5315C20.5041 24.5054 19.9404 24.5137 19.3779 24.5565C18.9907 24.5667 18.6056 24.63 18.2303 24.745C18.0883 24.8291 17.9046 25.2676 17.827 25.4516C17.6736 25.8128 16.9748 28.0802 16.7816 28.7345C16.668 29.1116 16.2836 30.3612 16.5411 30.5815C16.5317 30.8246 16.5639 31.1495 16.7419 31.2631C16.9199 31.3767 19.3666 31.4585 19.554 31.463C19.8854 31.4744 23.2354 31.5266 25.3734 31.4131C27.5114 31.2995 28.445 31.0541 28.3901 31.0609C28.4444 31.0418 28.4932 31.0049 28.5311 30.9541C28.5688 30.9036 28.5942 30.8415 28.6041 30.7746C28.6333 30.6067 28.6242 30.4325 28.5776 30.2703C28.8162 29.7137 27.0115 25.0926 26.5116 24.7678C26.4821 24.7479 26.4489 24.7369 26.415 24.736C26.3146 24.736 24.0687 24.6224 23.1957 24.5883C23.0063 24.2679 22.3908 23.0616 22.6276 22.8049C22.9874 22.4277 25.9927 24.3179 25.8317 20.5557C25.7484 18.854 25.0951 17.8567 23.7695 18.4337C23.6539 18.1338 22.6844 15.6484 22.4249 14.9873C23.43 15.0594 24.4383 15.0329 25.4397 14.9078C25.4541 15.1198 25.5049 15.326 25.589 15.5132C25.6731 15.7005 25.7886 15.865 25.9283 15.996C26.6858 16.6776 29.7006 16.5753 30.2479 15.7415C30.4013 15.4899 30.5073 15.2014 30.5586 14.8958C30.6099 14.5903 30.6053 14.2751 30.5452 13.9717C30.5955 13.9333 30.6347 13.8769 30.6569 13.8104C30.6872 13.74 30.6569 13.6514 30.5262 13.6196C30.3577 13.5893 30.1873 13.5771 30.0168 13.5832C30.0168 13.3969 30.0263 13.0494 30.0168 12.654C30.0339 12.6404 30.157 12.4632 30.1702 12.4428C30.3211 12.2312 30.4404 11.9898 30.5225 11.7294C30.5849 11.5181 30.6096 11.275 30.4448 11.1569C30.1911 10.991 30.013 11.2954 29.9278 11.6362C29.8483 11.1114 29.6646 10.3413 29.2253 10.4185C28.4791 10.5548 28.9942 12.7245 29.2366 13.5832C29.0237 13.5473 28.8075 13.5473 28.5947 13.5832C28.8314 12.8699 28.9526 11.9475 28.3447 11.8089C28.2525 11.7844 28.1564 11.793 28.0682 11.8333C27.9801 11.8737 27.9038 11.9442 27.8485 12.0361C27.8364 11.9847 27.8135 11.9378 27.7821 11.8999C27.7508 11.8619 27.7119 11.8341 27.6691 11.8192C27.6263 11.8042 27.581 11.8025 27.5376 11.8142C27.4942 11.8259 27.4538 11.8507 27.4205 11.8861C27.1422 12.127 27.3012 12.679 27.6251 12.8608C27.608 13.0943 27.608 13.3292 27.6251 13.5628C27.4235 13.5336 27.2195 13.5389 27.0191 13.5787C27.0079 13.024 26.9572 12.4714 26.8676 11.927C26.9826 11.8288 27.0795 11.7029 27.1518 11.5575C27.2242 11.412 27.2706 11.25 27.288 11.0819C27.3145 10.7797 27.2255 10.5276 27.0153 10.4617C26.7521 10.3799 26.5968 10.6003 26.5513 10.916C26.3184 10.5298 25.862 10.3912 25.6405 10.8343C24.9303 9.94822 24.5875 10.4435 24.7675 10.8343C24.9019 11.1341 25.2522 11.3023 25.5249 11.3954C25.5249 11.9043 25.7143 12.3337 25.9491 12.7722C26.1063 13.0675 26.2824 13.3515 26.4188 13.5605C26.1241 13.5492 25.8292 13.572 25.5382 13.6287C25.3602 13.6855 25.3318 13.84 25.4965 13.9513C25.4445 14.2176 25.4254 14.4916 25.4397 14.7646C24.4225 14.6997 23.4026 14.7285 22.3889 14.851C22.3246 14.6851 22.1333 14.2012 22.1106 14.1444C22.0878 14.0876 22.2696 13.4288 22.5253 7.30374C23.6994 7.1856 28.9791 7.32646 29.4639 7.10154C29.4917 7.08956 29.5163 7.06895 29.5353 7.04181C29.5543 7.01467 29.5669 6.98195 29.5718 6.94705C29.7328 6.31319 29.8426 0.865196 29.5718 0.358564C29.5055 0.23361 29.2688 0.194988 29.1381 0.172269C27.4508 -0.123077 20.41 0.00414915 20.0483 0.23361C19.6866 0.463071 19.84 2.70316 19.9082 3.14845C16.2514 3.00759 7.80733 3.28249 7.01196 3.63918C6.82259 3.72096 6.75253 4.03221 6.71465 4.26622C6.40029 6.21323 7.28277 12.4791 7.57819 14.4148C7.55925 14.4148 7.57819 14.4148 7.34715 14.8464C7.15162 14.829 6.95502 14.8413 6.76199 14.8828C6.33023 14.9623 5.93255 15.6779 5.71288 16.1232C5.70341 16.1459 5.14476 17.2592 5.06144 17.4409C4.58611 17.3523 2.37616 17.3864 2.09589 17.4046C1.81562 17.4227 1.52778 17.4477 1.27402 17.4705C1.22857 17.4705 1.22478 17.575 1.27402 17.5772C1.80426 17.6159 1.99931 17.6295 2.41025 17.6363C3.4158 17.6545 4.89858 17.7045 4.94592 17.6976C4.84745 17.9044 3.38928 21.0169 3.19423 21.4576C2.34586 23.366 1.67927 25.1131 1.6395 25.2608C1.41938 25.3808 1.21262 25.5336 1.02405 25.7151C0.963227 25.9153 0.926868 26.125 0.916108 26.3376C0.90664 26.7034 1.01647 26.792 1.18501 26.9965C0.732779 28.159 0.360991 29.3642 0.0734076 30.5997C-0.020476 31.0995 -0.0243529 31.6177 0.0620453 32.1196C0.139367 32.6213 0.283899 33.1047 0.490025 33.5509C0.582618 33.6638 0.702607 33.7385 0.832781 33.7645C1.33083 33.9326 2.87419 34.1484 3.39118 34.2188C3.35224 34.4964 3.34143 34.7787 3.35899 35.0594C3.35954 35.3488 3.39459 35.6363 3.46314 35.9137C3.46379 35.9205 3.46552 35.9271 3.46827 35.9332C3.47106 35.9392 3.47478 35.9445 3.47925 35.9489C3.48376 35.9532 3.48889 35.9565 3.4944 35.9584C3.49995 35.9604 3.50573 35.961 3.51145 35.9603C3.51716 35.9595 3.52271 35.9574 3.52777 35.954C3.53283 35.9508 3.53727 35.9463 3.54085 35.9409C3.54447 35.9354 3.54715 35.9294 3.54877 35.9228C3.55039 35.9161 3.5509 35.9091 3.55025 35.9023C3.58055 35.6191 3.58881 35.3332 3.57487 35.0481C3.57363 34.7735 3.5476 34.5002 3.49723 34.2325C3.75856 34.2597 4.01042 34.2824 4.23009 34.2915C4.19518 34.5566 4.18564 34.8258 4.20169 35.0935C4.20234 35.3828 4.23743 35.6704 4.30584 35.9477C4.30584 35.9616 4.31046 35.9748 4.31862 35.9847C4.32678 35.9945 4.33786 36 4.3494 36C4.36097 36 4.37205 35.9945 4.38022 35.9847C4.38841 35.9748 4.39295 35.9616 4.39295 35.9477C4.42429 35.6647 4.43317 35.3787 4.41947 35.0935C4.41819 34.8283 4.39278 34.5638 4.34372 34.3052C4.76602 34.3165 10.9812 34.9867 21.7148 34.7323C24.5913 34.6641 28.0493 34.5051 30.8974 34.1302C30.8598 34.4042 30.849 34.6825 30.8652 34.9595C30.8661 35.248 30.9018 35.535 30.9713 35.8114C30.97 35.819 30.97 35.827 30.9716 35.8345C30.973 35.8421 30.976 35.8491 30.9801 35.8552C30.9842 35.8612 30.9892 35.8662 30.9951 35.8694C31.0009 35.8728 31.0074 35.8745 31.0139 35.8745C31.0203 35.8745 31.0268 35.8728 31.0327 35.8694C31.0385 35.8662 31.0437 35.8612 31.0478 35.8552C31.0517 35.8491 31.0548 35.8421 31.0562 35.8345C31.0578 35.827 31.0579 35.819 31.0565 35.8114C31.0896 35.5286 31.0985 35.2423 31.083 34.9572C31.0809 34.6766 31.0537 34.397 31.0016 34.1234C31.2118 34.0962 31.6985 34.0235 31.7401 34.0166C31.7029 34.2891 31.6926 34.5659 31.7098 34.8413C31.71 35.1306 31.745 35.4184 31.814 35.6956C31.8152 35.7094 31.8211 35.7221 31.8301 35.7308C31.8392 35.7395 31.8507 35.7436 31.8622 35.7422C31.8738 35.7406 31.8843 35.7337 31.8916 35.7228C31.899 35.7118 31.9024 35.698 31.9011 35.6842C31.9323 35.4017 31.9405 35.1164 31.9257 34.8322C31.9244 34.5523 31.8971 34.2734 31.8443 34.0007C32.6983 33.8621 35.3096 33.4396 35.6656 32.5649C36.086 31.5675 36.0523 30.2703 35.8781 29.1889ZM18.6451 25.5311C18.6659 25.4698 19.3003 25.3039 19.9934 25.5311C19.9997 25.5294 20.0063 25.5296 20.0126 25.5315C20.019 25.5332 20.0248 25.5368 20.0299 25.5415C20.0349 25.5464 20.039 25.5527 20.0417 25.5597C20.0445 25.5667 20.0459 25.5745 20.0459 25.5823C20.0459 25.59 20.0445 25.5978 20.0417 25.6048C20.039 25.6118 20.0349 25.618 20.0299 25.6228C20.0248 25.6277 20.019 25.6313 20.0126 25.633C20.0063 25.6349 19.9997 25.6349 19.9934 25.6334C19.6483 25.7068 19.2959 25.7176 18.9481 25.6652C18.7852 25.6334 18.5788 25.6311 18.6394 25.5311H18.6451ZM28.3807 30.9337C26.629 31.3335 16.9521 31.2427 16.8063 31.1609C16.6604 31.0791 16.6472 30.8155 16.6434 30.6429C17.6925 31.0518 27.9432 30.736 28.5132 30.3748C28.5435 30.5747 28.5511 30.8951 28.375 30.9337H28.3807ZM24.705 25.5561C24.705 25.4789 25.1216 25.4357 25.1405 25.4334C25.3883 25.4105 25.637 25.4105 25.8847 25.4334C26.023 25.4516 26.2143 25.4743 26.1991 25.5448C26.184 25.6152 25.898 25.6447 25.8488 25.6538C25.6637 25.6743 25.4779 25.6833 25.292 25.6811C25.167 25.6765 24.6917 25.6493 24.6993 25.5561H24.705ZM27.1384 26.3127C27.6121 27.3956 28.01 28.5242 28.3276 29.6864C28.368 29.8331 28.3904 29.9863 28.3939 30.1408C27.5399 30.4589 17.6963 30.786 16.7002 30.443C16.6529 30.427 16.6396 30.443 16.6283 30.3475C16.5563 29.7296 17.399 27.2737 17.5941 26.7011C21.177 26.558 27.1005 26.3376 27.1327 26.3127H27.1384ZM25.5439 11.2932C25.3368 11.1567 25.1489 10.9819 24.9871 10.7752C24.9133 10.6411 24.9303 10.548 25.1481 10.6752C25.2844 10.7502 25.4757 10.8842 25.6045 10.9774C25.5714 11.0785 25.551 11.1849 25.5439 11.2932ZM30.0888 11.6998C30.2403 11.3727 30.3899 11.2795 30.3747 11.4727C30.2933 11.8182 30.1776 12.1508 30.0301 12.4632C30.0187 12.236 30.0055 12.0838 29.9903 11.9339C29.9979 11.902 30.0358 11.8066 30.0831 11.6998H30.0888ZM29.284 13.6764C29.3218 13.8059 29.3465 13.8831 29.3484 13.8877C29.3504 13.8941 29.3536 13.9 29.3576 13.9049C29.3616 13.9099 29.3664 13.9139 29.3717 13.9166C29.3769 13.9194 29.3826 13.9209 29.3884 13.921C29.3941 13.9211 29.3998 13.9198 29.4052 13.9172C29.4885 13.8786 29.3654 13.7854 29.1684 12.4155C29.1097 12.0066 28.9355 10.7457 29.2802 10.6866C29.5604 10.6366 29.7119 11.4704 29.765 11.7998C29.8633 12.4348 29.9266 13.0769 29.9543 13.7218C29.9542 13.7344 29.9578 13.7466 29.9646 13.7562C29.9714 13.7658 29.9809 13.7722 29.9913 13.7741C30.0015 13.7761 30.0123 13.7735 30.0211 13.7668C30.0299 13.7601 30.0366 13.7498 30.0396 13.7377C30.0402 13.7249 30.0402 13.712 30.0396 13.6991C30.2108 13.7051 30.3809 13.7334 30.5471 13.7832C30.5259 13.8128 30.4994 13.8361 30.4694 13.8513C30.0718 14.0967 28.8692 14.049 28.4545 14.0399C28.5113 13.9036 28.5511 13.7991 28.5947 13.6741C28.821 13.7187 29.0518 13.7195 29.2783 13.6764H29.284ZM27.8069 13.1788C27.8504 12.7245 27.947 11.9997 28.3295 12.0861C28.7121 12.1724 28.6155 12.8381 28.5322 13.2834C28.4809 13.5388 28.4176 13.7906 28.3428 14.0376H27.7747C27.7701 13.751 27.7789 13.4643 27.8012 13.1788H27.8069ZM27.5664 12.1111C27.5752 12.101 27.5856 12.0933 27.5971 12.0883C27.6085 12.0834 27.6208 12.0814 27.6328 12.0825C27.6449 12.0835 27.6568 12.0877 27.6675 12.0945C27.6783 12.1014 27.6877 12.1109 27.6951 12.1224C27.7253 12.1586 27.7526 12.1982 27.7766 12.2406C27.7228 12.3854 27.6852 12.5382 27.6648 12.6949C27.5664 12.5314 27.4395 12.2337 27.5664 12.1111ZM26.9698 10.7297C27.216 10.8229 27.0229 11.5999 26.8581 11.8362C26.8127 11.5916 26.7447 11.3539 26.6555 11.1273C26.7104 10.9274 26.8032 10.6661 26.9698 10.7275V10.7297ZM26.504 13.7014C26.5968 13.8422 26.6574 13.9286 26.6574 13.9286C26.665 13.9375 26.6749 13.9428 26.6855 13.9435C26.696 13.9443 26.7064 13.9404 26.7147 13.9326C26.723 13.9249 26.7287 13.9137 26.7308 13.9012C26.7328 13.8888 26.7309 13.8759 26.7256 13.865C26.7256 13.865 26.3904 13.2924 26.1139 12.6995C25.9056 12.2451 25.7067 11.7907 25.7617 11.2886C25.8052 10.8933 25.9794 10.7252 26.273 10.9547C26.6971 11.2818 26.8903 13.2993 26.9509 13.9081C26.9515 13.9241 26.9563 13.9394 26.9643 13.952C26.9725 13.9646 26.9837 13.9739 26.9964 13.9786C27.0475 13.9786 27.0399 13.9127 27.038 13.8809C27.0361 13.8491 27.038 13.69 27.038 13.6741C27.2392 13.7046 27.4428 13.7046 27.644 13.6741C27.6554 13.84 27.6686 13.9695 27.6781 14.0376C27.0058 14.0376 26.1934 14.0921 25.6367 13.8309C25.9228 13.763 26.2127 13.7197 26.504 13.7014ZM25.5969 14.0354C25.8739 14.1641 26.1658 14.2408 26.4623 14.2625C26.7975 14.2989 29.0794 14.3034 29.3389 14.2875C29.7301 14.2798 30.1175 14.193 30.4846 14.0308C30.5198 14.3097 30.5065 14.5944 30.4456 14.8671C30.3847 15.1395 30.2774 15.3939 30.1305 15.6143C29.6703 16.2618 26.7596 16.4095 26.0609 15.8188C25.6007 15.4394 25.5174 14.6806 25.5969 14.0331V14.0354ZM24.0706 20.7056C24.1103 20.8578 6.05374 20.8647 6.03481 20.8624C5.27732 20.8624 5.46669 20.8624 5.21293 20.7874C5.14476 20.7692 5.1315 20.7692 5.11825 20.6897C5.1022 20.565 5.09776 20.4385 5.10499 20.3126C5.10899 20.3219 5.11539 20.3294 5.12328 20.334C5.13113 20.3384 5.14001 20.3397 5.14855 20.3376C5.14855 20.3376 24.0649 20.0286 24.188 20.0241C24.2391 20.2899 24.2467 20.5375 24.0706 20.7056ZM29.3976 6.91752C29.3976 6.91752 29.409 6.8948 29.4127 6.90161C29.4165 6.90843 29.3976 6.91524 29.3881 6.91752H29.3976ZM19.9801 1.1878C19.9801 1.04013 20.0294 0.481246 20.1392 0.41309C20.3892 0.263145 28.3333 0.135919 29.4184 0.542587C29.6078 1.01968 29.5472 6.37908 29.3881 6.91752C28.4564 7.09245 23.7676 7.07882 22.548 7.22876C22.6219 5.44079 22.6541 3.93452 22.5935 3.64145C22.5818 3.60324 22.5629 3.56879 22.5382 3.54078C22.5136 3.51278 22.4839 3.49204 22.4514 3.48014C22.0367 3.26431 20.4763 3.20297 20.0218 3.1848C19.9628 2.52157 19.9489 1.85372 19.9801 1.1878ZM6.88509 6.90843C6.85668 6.43133 6.71654 4.02313 7.09529 3.85501C7.28466 3.77549 7.95125 3.69597 8.91894 3.62782C10.7729 3.48923 13.6949 3.37791 16.3537 3.35519C16.9445 3.35519 21.9363 3.30294 22.4249 3.70506C22.5688 4.49114 22.1087 13.2243 22.0064 14.0672C17.5316 14.2421 12.2292 14.5056 7.71643 14.3739C7.64068 13.8536 7.0612 9.83917 6.88509 6.90843ZM7.65772 14.5261C7.6581 14.5208 7.6581 14.5155 7.65772 14.5102C10.8486 14.6283 20.8342 14.2353 22.05 14.2262C22.1844 14.6011 24.0725 19.6265 24.152 19.9059C24.1312 19.9059 5.1334 20.2149 5.10878 20.2376C5.34739 19.2789 7.32064 15.2258 7.65772 14.5261ZM12.8635 29.7478C12.7234 30.0749 8.4777 32.3513 7.6047 32.6671C7.62164 32.5625 7.62801 32.4557 7.62364 32.3491C8.91326 31.8129 11.7122 30.3975 12.9677 29.3956C12.9438 29.5179 12.9089 29.6368 12.8635 29.75V29.7478ZM12.9942 29.2457C12.6155 29.5137 12.2538 29.7 7.62174 32.2264C7.62195 32.1236 7.61048 32.0212 7.58765 31.922C8.19364 31.5812 12.303 29.6705 13.0359 28.9094C13.0264 29.0071 13.0132 29.1253 12.9942 29.2479V29.2457ZM3.23968 24.5837C3.33075 24.7125 3.38712 24.8713 3.40134 25.0393C3.41552 25.2072 3.38691 25.3763 3.31922 25.5243C3.28892 25.5811 3.36088 25.6402 3.39118 25.5811C3.50552 25.4315 3.57311 25.2392 3.58244 25.0366C3.59174 24.834 3.54226 24.6339 3.44231 24.4702C4.36266 23.9635 5.26785 23.4864 5.51593 23.3569C5.57801 23.5082 5.61123 23.674 5.6132 23.8427C5.61516 24.0112 5.58582 24.1782 5.52729 24.3316C5.50457 24.4043 5.57274 24.4315 5.60493 24.3838C5.70909 24.225 5.77392 24.0343 5.79203 23.8334C5.81011 23.6326 5.7807 23.4296 5.70719 23.2479C5.91172 23.1093 6.38893 22.7935 6.62186 22.7935C6.91349 22.7935 12.8314 28.5686 12.9412 28.7004C12.4469 29.3115 7.85846 31.4903 7.47214 31.7129C6.65784 31.4857 1.68874 26.3581 1.22289 25.831C1.51263 25.5425 2.91396 24.7655 3.23968 24.5837ZM1.07896 25.9355C1.6698 26.6284 6.59913 31.7902 7.42479 31.9538C7.40827 32.0393 7.40062 32.1272 7.40207 32.215C6.07647 31.438 2.28905 27.5031 1.03541 26.2377C1.04109 26.2377 1.0695 26.015 1.08465 25.9355H1.07896ZM1.10737 26.7148C1.05395 26.6173 1.02746 26.502 1.03162 26.3854C2.27012 27.8848 5.7659 31.5721 7.40018 32.34C7.39684 32.4615 7.40703 32.5829 7.43048 32.7012C6.459 32.4399 1.23615 26.9011 1.11305 26.7148H1.10737ZM35.573 32.4899C34.3497 35.4025 1.15282 34.6414 0.61501 33.5055C0.387041 33.0301 0.233041 32.5089 0.160519 31.9674C0.233571 32.1594 0.355596 32.3184 0.508963 32.4218C3.29649 34.3688 31.03 33.8599 34.6506 32.2991C35.4177 31.9674 35.804 31.2517 35.8911 30.2544C35.9424 31.0202 35.8319 31.7892 35.5692 32.4899H35.573Z" fill="black"/>
<path d="M7.21615 17.0388C20.6067 17.266 21.8849 17.1274 22.2599 17.057C22.3489 17.0411 22.4057 17.0047 22.4019 16.8798C22.4019 16.5504 21.758 15.0395 21.5876 14.935C21.5119 14.8873 7.95281 15.1168 7.90546 15.135C7.89665 15.1374 7.88839 15.1424 7.88119 15.149C7.87403 15.1556 7.86807 15.1639 7.8638 15.1736C7.73503 15.4258 7.10632 16.6708 7.13472 16.9525C7.13779 16.9759 7.14763 16.9975 7.16247 17.0132C7.17735 17.029 7.19632 17.0381 7.21615 17.0388ZM7.96038 15.2917C8.09673 15.2713 21.4361 15.1122 21.5175 15.1213C21.6589 15.3654 21.7855 15.6212 21.8963 15.887C21.5857 15.887 7.70473 15.9756 7.63277 15.9778C7.71609 15.7779 7.82593 15.5507 7.96038 15.2917ZM7.58164 16.0869C7.65549 16.0869 21.7012 16.0006 21.9417 15.9937C22.0664 16.2721 22.1649 16.5663 22.2353 16.8707C21.5611 17.0002 15.4179 16.9366 7.28433 16.8707C7.36032 16.5954 7.45862 16.33 7.57785 16.0778L7.58164 16.0869ZM17.6676 17.8113C17.6299 17.7109 17.5682 17.6263 17.4902 17.5682C17.4124 17.5098 17.3219 17.4807 17.2302 17.4841C16.7492 17.4841 12.7098 17.3501 12.3462 17.5273C12.1141 17.8647 11.9345 18.2496 11.816 18.6632C11.8046 18.7632 11.8463 18.8086 11.8974 18.8154C13.0336 18.9631 16.8003 19.104 17.7774 18.8881C17.8986 18.8609 17.9138 18.7064 17.8892 18.5587C17.8306 18.3035 17.7564 18.0536 17.6676 17.8113ZM11.9504 18.6632C12.0592 18.2946 12.2069 17.9442 12.3898 17.6204C12.6776 17.5068 16.4215 17.7431 17.2358 17.7408C17.2843 17.7388 17.3322 17.7535 17.3739 17.7833C17.4156 17.8132 17.4492 17.8567 17.4707 17.9089C17.5627 18.1449 17.6345 18.3915 17.6847 18.645C16.7245 18.8245 12.6473 18.7223 11.9504 18.6632ZM30.8195 18.1021C30.5525 17.6613 29.2136 17.6818 28.7648 17.6977C28.386 17.6977 27.0093 17.7726 27.0093 18.2179C27.0109 18.2539 27.0196 18.2891 27.0347 18.3204C27.0499 18.3516 27.071 18.3779 27.0964 18.3974C27.1324 18.4315 26.8843 21.4258 27.2252 23.0321C27.3369 23.5637 27.4808 23.8272 27.9031 24.0476C28.7137 24.4702 30.0582 24.377 30.5979 23.4751C30.7058 23.2115 30.6831 22.4436 30.6926 22.2096C31.5315 22.4096 32.2189 22.0006 32.3969 20.9169C32.5087 20.2195 32.3647 19.7628 32.1167 19.4856C31.951 19.3238 31.755 19.2123 31.5457 19.161C31.3363 19.1095 31.1196 19.1195 30.9142 19.1903C30.9071 19.1931 30.8993 19.1941 30.8919 19.1926C30.8843 19.1912 30.8772 19.1879 30.8712 19.1824C30.8651 19.177 30.86 19.1701 30.8567 19.1619C30.8532 19.1538 30.8515 19.1449 30.8517 19.1358C30.8517 19.0154 30.8876 18.1997 30.8195 18.1021ZM27.2214 18.1498C27.7327 17.7908 29.8158 17.7635 30.4881 18.1293C30.5108 18.143 30.596 18.1952 30.596 18.2179C30.596 18.2406 30.5089 18.2952 30.4881 18.3065C29.9806 18.5814 28.1683 18.7064 27.2157 18.2884C27.1494 18.2452 27.2157 18.1589 27.2157 18.1498H27.2214ZM30.9672 19.422C31.1393 19.3626 31.3208 19.3541 31.4963 19.397C31.6718 19.4402 31.8359 19.5337 31.9746 19.6697C32.1792 19.8969 32.2814 20.2876 32.1867 20.867C32.168 21.0684 32.1097 21.2615 32.0169 21.431C31.9241 21.6002 31.7993 21.7411 31.6527 21.8416C31.3421 22.0093 30.9924 22.0414 30.6642 21.9325C30.6481 21.9255 30.6309 21.9224 30.6138 21.9238C30.5966 21.9251 30.5799 21.9306 30.5646 21.9399C30.5493 21.9493 30.5359 21.9624 30.525 21.9783C30.5141 21.9942 30.506 22.0126 30.5013 22.0324C30.4502 22.2051 30.5222 22.9026 30.418 23.3433C29.9389 24.1226 28.7137 24.193 27.9884 23.8272C27.621 23.6387 27.5187 23.4433 27.4202 22.973C27.1665 21.8575 27.1513 19.5856 27.2082 18.4678C27.8047 18.8063 29.8707 18.904 30.6831 18.4042C30.6831 19.1085 30.6112 19.2266 30.7589 19.3698C30.7875 19.3957 30.8204 19.4137 30.8555 19.4228C30.8903 19.4317 30.9266 19.4315 30.9615 19.422H30.9672ZM12.5716 24.2362C12.0743 23.7301 11.5392 23.2799 10.9733 22.8912C10.7553 22.7369 10.5234 22.6127 10.2821 22.5209C10.0795 22.4573 9.99423 22.5822 10.0359 22.7481C10.1213 22.9863 10.2341 23.2087 10.3711 23.4092C10.8068 24.0709 11.3079 24.6667 11.8633 25.1835C12.7079 26.031 13.8025 27.0579 14.6016 27.7871C14.6424 27.8229 14.6886 27.8485 14.7377 27.8623C14.7867 27.8763 14.8376 27.8784 14.8875 27.8685C14.9372 27.8585 14.9847 27.8367 15.0275 27.8044C15.07 27.7722 15.1068 27.73 15.1357 27.6804C15.2758 27.4963 15.363 27.1737 15.2058 26.9988C15.024 26.8034 13.9123 25.547 12.5716 24.2362ZM10.7574 23.7318L10.498 23.2297C10.5903 23.1837 10.6684 23.1042 10.7214 23.0025L11.1324 23.2025C11.0292 23.2271 10.9361 23.2926 10.868 23.3887C10.7999 23.4849 10.7609 23.6057 10.7574 23.7318ZM11.3388 24.3111C11.2019 24.1729 11.0752 24.0209 10.96 23.8568C10.9733 23.5819 11.0452 23.4592 11.2744 23.4501C11.4271 23.5376 11.5712 23.6451 11.7043 23.7704C11.6024 23.8002 11.5115 23.8693 11.4455 23.9668C11.3795 24.0645 11.342 24.1854 11.3388 24.3111ZM14.577 27.6167C14.3668 27.4055 11.5717 24.561 11.3994 24.3793C11.4138 24.2521 11.4601 24.1332 11.5322 24.0383C11.6042 23.9433 11.6985 23.8768 11.8027 23.8477C12.4561 24.4293 13.3953 25.3926 15.0334 27.0283C14.9697 27.0244 14.906 27.0374 14.8468 27.0662C14.7876 27.0949 14.7344 27.1389 14.6909 27.195C14.6474 27.251 14.6147 27.3178 14.595 27.3907C14.5753 27.4636 14.5692 27.5407 14.577 27.6167ZM29.5829 30.134C29.8196 30.3271 29.9843 30.2385 30.1377 29.9704C30.5165 29.3252 31.8421 26.4694 31.8421 26.4467C31.8421 26.424 31.8572 26.4672 31.7947 25.5493C31.7921 25.5149 31.7817 25.4817 31.7646 25.4537C31.7477 25.4257 31.7247 25.4038 31.6982 25.3901C31.6716 25.3763 31.6424 25.3714 31.6139 25.3759C31.5852 25.3802 31.558 25.3939 31.5353 25.4153L30.8876 25.981C30.8876 25.981 29.4503 29.5456 29.4352 29.5774C29.4091 29.6772 29.4094 29.7841 29.4358 29.8837C29.4623 29.9833 29.5136 30.0706 29.5829 30.134ZM31.5883 25.6924C31.5997 25.8583 31.6148 26.0787 31.6262 26.2309C31.4856 26.15 31.3383 26.087 31.1869 26.0423L31.5883 25.6924ZM31.0467 26.1968C31.2109 26.3363 31.4005 26.4268 31.5997 26.4603C31.5713 26.5194 30.1245 29.6864 30.1093 29.7182C30.0653 29.6109 29.993 29.524 29.9037 29.471C29.8144 29.418 29.7129 29.4019 29.6151 29.4252C29.7628 29.0957 30.9937 26.3104 31.0467 26.1968Z" fill="black"/>
<path d="M30.1761 21.6916C30.1557 21.6572 30.1298 21.628 30.0998 21.6059C30.0698 21.5837 30.0365 21.5687 30.0018 21.5621C29.8898 21.5262 29.776 21.4989 29.661 21.4803C29.7254 22.0211 29.7632 22.6163 29.7613 22.6685C29.7585 22.7032 29.7443 22.735 29.7221 22.7572C29.6996 22.7791 29.6709 22.7899 29.642 22.7867C29.6131 22.7827 29.5865 22.7653 29.5682 22.738C29.5497 22.711 29.5409 22.6761 29.5436 22.6413C29.5436 22.6027 29.5322 22.4459 29.5227 21.4576C29.144 21.4008 27.3203 21.2304 27.3923 21.6666C27.3923 21.6894 27.2427 22.8026 27.8222 23.3365C28.4016 23.8704 29.5606 23.7659 29.9659 23.2229C30.0809 23.0576 30.1568 22.8582 30.1855 22.6458C30.2304 22.3297 30.227 22.0065 30.1761 21.6916ZM30.6306 19.6356C30.6306 19.7378 30.5169 20.5193 30.4412 21.569L30.5321 21.5917C30.8654 21.6765 31.2124 21.631 31.5225 21.4622C31.6307 21.3901 31.7202 21.2838 31.7813 21.1547C31.8425 21.0256 31.8728 20.879 31.869 20.7306C31.882 20.5462 31.8552 20.3609 31.7914 20.1924C31.7276 20.0239 31.629 19.8777 31.5048 19.7681C31.3806 19.6583 31.2351 19.5884 31.0821 19.5651C30.929 19.5421 30.7737 19.5663 30.6306 19.6356ZM30.7158 19.7128C30.8367 19.6899 30.9602 19.6982 31.0781 19.7374C31.1962 19.7766 31.3056 19.8457 31.3994 19.94C31.4895 20.039 31.5593 20.1617 31.6033 20.2986C31.6473 20.4353 31.6644 20.5824 31.6532 20.7284C31.6361 21.3122 31.1362 21.4236 30.6571 21.3645C30.6798 20.951 30.6987 20.4762 30.7158 19.7128ZM12.3865 17.6204C12.3865 17.6204 12.3884 17.6227 12.3865 17.6204V17.6204ZM28.6876 6.37677C28.6871 6.41725 28.6933 6.45744 28.7057 6.49503C28.7184 6.53262 28.7368 6.56687 28.7605 6.59582C28.784 6.62474 28.8123 6.64779 28.8432 6.66361C28.8743 6.67943 28.9076 6.68777 28.9414 6.68806C28.993 6.68938 29.0436 6.67232 29.087 6.63895C29.1304 6.60557 29.1646 6.55745 29.185 6.50069C29.2055 6.44398 29.2115 6.38119 29.2022 6.32039C29.1929 6.25954 29.1686 6.20345 29.1325 6.15925C29.0965 6.11505 29.0503 6.08469 28.9998 6.07213C28.9494 6.05957 28.8969 6.06532 28.8492 6.08865C28.8014 6.11199 28.7605 6.15185 28.7318 6.2032C28.7031 6.2545 28.6876 6.31498 28.6876 6.37677ZM7.96091 13.8717C8.00446 13.974 8.06127 13.9854 8.09725 13.9536C8.13323 13.9218 20.1261 13.7968 21.018 13.74C21.2099 13.7435 21.4012 13.7145 21.5862 13.6536C22.0123 13.1993 22.1789 4.70466 22.0122 4.31162C21.5862 3.29154 8.25065 3.94816 7.43067 4.24578C6.77733 4.48206 7.65981 13.147 7.96091 13.8717ZM7.39469 4.61378C7.39469 4.57289 7.43635 4.41386 7.46854 4.4025C8.37563 4.07535 21.5464 3.53695 21.9043 4.39118C21.9349 4.56207 21.9488 4.73667 21.946 4.91144C21.9782 5.90199 21.946 8.02389 21.8608 9.92547C21.8437 10.289 21.7093 13.2674 21.5123 13.5378C20.7264 13.7377 8.61613 13.7831 8.07832 13.8081C7.77153 12.9539 7.10873 6.11323 7.39469 4.61378ZM28.966 1.36725C29.0174 1.36861 29.0681 1.3516 29.1115 1.3183C29.1549 1.28505 29.189 1.23705 29.2095 1.18046C29.2302 1.12383 29.2362 1.06121 29.227 1.00044C29.2177 0.939681 29.1937 0.883586 29.1579 0.839264C29.1219 0.794982 29.076 0.764498 29.0256 0.751651C28.9753 0.738846 28.9229 0.744257 28.8751 0.767265C28.8273 0.790232 28.7864 0.829763 28.7574 0.880777C28.7283 0.931792 28.7127 0.992018 28.7122 1.05373C28.7114 1.09442 28.7174 1.13486 28.7299 1.17269C28.7422 1.21053 28.7608 1.24506 28.7845 1.27423C28.808 1.30343 28.8363 1.32665 28.8675 1.34263C28.8986 1.35862 28.9321 1.367 28.966 1.36725Z" fill="black"/>
<path d="M11.1007 10.3389H13.3504C13.6107 10.3377 13.8601 10.2127 14.0437 9.99116C14.2272 9.76972 14.33 9.46991 14.3295 9.15754V6.96744C14.3295 6.65446 14.2268 6.35403 14.0435 6.13122C13.8603 5.90845 13.6113 5.78118 13.3504 5.77697H11.1007C10.9703 5.77639 10.841 5.80675 10.7204 5.8664C10.5997 5.926 10.4901 6.01366 10.3979 6.12432C10.3057 6.23498 10.2326 6.36646 10.1829 6.51116C10.1332 6.6559 10.1079 6.81097 10.1084 6.96744V9.15754C10.1089 9.31331 10.135 9.46739 10.1851 9.61106C10.2352 9.75472 10.3085 9.88513 10.4006 9.9948C10.4928 10.1045 10.602 10.1914 10.7221 10.2504C10.8422 10.3095 10.9709 10.3395 11.1007 10.3389ZM10.2694 6.96744C10.2728 6.70485 10.3617 6.45428 10.517 6.26923C10.6723 6.08413 10.8818 5.97925 11.1007 5.9769H13.3504C13.461 5.97541 13.5707 6.00019 13.6732 6.04984C13.7757 6.0995 13.8691 6.17302 13.9478 6.26617C14.0265 6.35936 14.089 6.47027 14.1318 6.59258C14.1745 6.71489 14.1967 6.84616 14.1969 6.9788V9.15754C14.1964 9.29035 14.1741 9.42166 14.1313 9.5441C14.0885 9.66653 14.026 9.77765 13.9475 9.87112C13.8688 9.96456 13.7756 10.0385 13.6732 10.0888C13.5708 10.139 13.4611 10.1646 13.3504 10.164H11.1007C10.991 10.1634 10.8825 10.1369 10.7814 10.086C10.6803 10.0351 10.5885 9.9608 10.5113 9.86737C10.4341 9.77389 10.373 9.6631 10.3315 9.54133C10.29 9.41951 10.2689 9.28915 10.2694 9.15754V6.96744ZM17.1833 11.9611C17.2211 12.0951 17.3158 12.0656 17.3423 11.9815C17.3783 11.8611 17.5885 10.9955 17.615 10.8456C17.7608 10.791 17.3499 10.9614 18.6206 10.4071C18.6339 10.401 18.645 10.3902 18.6531 10.3762C18.6612 10.3622 18.6654 10.3457 18.6654 10.3287C18.6654 10.3117 18.6612 10.2952 18.6531 10.2812C18.645 10.2672 18.6339 10.2565 18.6206 10.2503L16.6739 9.31658C16.6619 9.3098 16.6486 9.30691 16.6355 9.30815C16.6222 9.30943 16.6096 9.31476 16.5987 9.32376C16.5878 9.33269 16.579 9.34495 16.5733 9.35925C16.5675 9.37354 16.5649 9.38936 16.5659 9.40518C16.5659 9.40518 17.0791 11.5998 17.1833 11.9611ZM16.761 9.55967L18.4009 10.3344C18.1813 10.4321 17.8101 10.6002 17.6321 10.6865C17.5525 10.7229 17.5203 10.7388 17.5014 10.7683C17.4825 10.7979 17.5488 10.6206 17.2704 11.6498L16.761 9.55967ZM21.2301 2.89848C21.2323 2.91211 21.2385 2.92438 21.2475 2.9331C21.2565 2.94185 21.2678 2.94648 21.2794 2.94619C21.3191 2.94619 22.5444 3.08705 22.7943 3.00753C22.9553 2.95528 22.9837 2.6145 22.9989 2.41457C23.0178 2.11241 22.9989 1.37177 22.8928 1.11959C22.7489 0.778808 21.6865 0.892403 21.3778 0.958287C21.2959 0.972125 21.2177 1.00786 21.1487 1.06279C21.1086 1.11868 21.0853 1.18907 21.0824 1.26272C21.0805 1.81289 21.1301 2.36157 21.2301 2.89848ZM21.2851 1.23773C21.5843 1.12641 22.4364 1.08324 22.7072 1.23773C22.8 1.53308 22.8493 2.54861 22.7375 2.78489C22.5614 2.83941 21.4858 2.83941 21.3059 2.84168C21.3002 2.66448 21.2131 1.70801 21.2851 1.23773ZM23.7715 2.8894C23.774 2.90282 23.7804 2.91484 23.7892 2.92351C23.7982 2.93215 23.8092 2.93694 23.8207 2.9371C23.8605 2.9371 25.0857 3.07796 25.3357 2.99845C25.4967 2.94619 25.5251 2.60541 25.5421 2.40548C25.5592 2.10332 25.5421 1.36268 25.4342 1.1105C25.2903 0.767448 24.2279 0.883315 23.9192 0.9492C23.8375 0.963988 23.7593 0.999636 23.6901 1.05371C23.6508 1.11021 23.6276 1.18023 23.6238 1.25363C23.6221 1.8038 23.6716 2.35249 23.7715 2.8894ZM23.8264 1.22864C24.1256 1.11505 24.9778 1.07415 25.2486 1.22864C25.3414 1.52399 25.3906 2.53952 25.2789 2.77353C25.1028 2.83033 24.0272 2.83033 23.8473 2.8326C23.8416 2.65539 23.7545 1.69892 23.8264 1.22864ZM26.4303 2.98936C26.4325 3.00299 26.4387 3.01526 26.4476 3.02397C26.4566 3.03273 26.468 3.03736 26.4795 3.03707C26.5193 3.03707 27.7445 3.17792 27.9945 3.09841C28.1555 3.04616 28.1839 2.70537 28.199 2.50545C28.2179 2.20328 28.199 1.46265 28.093 1.21047C27.949 0.869683 26.8867 0.983278 26.578 1.04916C26.4963 1.06358 26.418 1.09927 26.3489 1.15367C26.3088 1.20956 26.2854 1.27995 26.2826 1.3536C26.2807 1.90377 26.3302 2.45245 26.4303 2.98936ZM26.4852 1.32861C26.7844 1.21728 27.6366 1.17412 27.9074 1.32861C28.0002 1.62395 28.0494 2.63949 27.9377 2.87576C27.7616 2.93029 26.6859 2.93029 26.506 2.93256C26.5003 2.75535 26.4132 1.79889 26.4852 1.32861ZM23.7885 6.38356C23.8018 6.429 23.8321 6.43355 23.8378 6.43127C23.8794 6.43127 25.1028 6.57213 25.3528 6.49261C25.5137 6.44036 25.5421 6.09958 25.5592 5.89965C25.5762 5.59749 25.5592 4.85685 25.4531 4.60694C25.3073 4.26389 24.2449 4.37976 23.9381 4.44337C23.8556 4.45745 23.7769 4.49314 23.7071 4.54788C23.6675 4.60496 23.6441 4.67589 23.6408 4.75007C23.6391 5.2995 23.6887 5.8474 23.7885 6.38356ZM23.8454 4.72281C24.1446 4.61149 24.9948 4.56832 25.2656 4.72281C25.3584 5.01816 25.4077 6.03369 25.2959 6.26997C25.1198 6.3245 24.0461 6.32449 23.8662 6.32677C23.8586 6.14956 23.7715 5.19309 23.8454 4.72281ZM28.2161 4.5138C28.5191 3.97763 28.7842 3.49372 28.7936 3.471C28.8031 3.44828 28.6649 3.24381 28.5834 3.38921C28.004 4.45927 28.0835 4.35704 28.0418 4.33886C27.7085 4.19346 26.6329 4.24344 26.4644 4.43201C26.3507 4.55924 26.3943 5.02043 26.4076 5.21808C26.2864 5.1363 26.1936 5.07723 26.1595 5.06132C26.0724 5.02043 26.0781 5.12266 26.1254 5.15901L26.4208 5.3862C26.4448 5.68477 26.4833 5.9814 26.5363 6.27451C26.5382 6.28835 26.5442 6.30091 26.5534 6.30971C26.5624 6.31851 26.5739 6.32297 26.5856 6.32222C26.6253 6.32222 27.8506 6.46308 28.1005 6.38356C28.4263 6.27451 28.3259 4.84095 28.2161 4.5138ZM26.5912 4.60694C27.0368 4.48538 27.4983 4.4753 27.9471 4.57741L27.29 5.82013C27.2237 5.7747 26.8696 5.52479 26.5742 5.32486C26.5617 5.08772 26.5674 4.84971 26.5912 4.61376V4.60694ZM28.0437 6.15183C27.8657 6.20863 26.792 6.20863 26.6121 6.2109C26.6121 6.12003 26.5837 5.82241 26.5704 5.49298L27.29 6.02915C27.3082 6.03155 27.3266 6.0277 27.3431 6.01804C27.3595 6.00841 27.3732 5.99334 27.3828 5.97462C27.4434 5.88148 27.7483 5.34985 28.0589 4.80233C28.1176 5.21127 28.1365 5.95645 28.0475 6.15183H28.0437ZM20.5143 1.29226C20.5658 1.29316 20.6161 1.27573 20.6593 1.24219C20.7024 1.20865 20.7362 1.16049 20.7565 1.10385C20.7767 1.04718 20.7826 0.9846 20.7731 0.923961C20.7637 0.863364 20.7395 0.807475 20.7035 0.7634C20.6675 0.719325 20.6216 0.689047 20.5713 0.676407C20.521 0.663767 20.4687 0.669344 20.421 0.692435C20.3734 0.715484 20.3325 0.755015 20.3036 0.805988C20.2747 0.856961 20.259 0.917104 20.2587 0.978734C20.2587 1.06073 20.2853 1.13946 20.3331 1.19808C20.381 1.25669 20.446 1.29048 20.5143 1.29226Z" fill="black"/>
</svg>
