<svg width="36" height="38" viewBox="0 0 36 38" fill="none" xmlns="http://www.w3.org/2000/svg">
<path d="M12.2591 29.0221C12.5869 28.9041 12.9227 28.8104 13.2638 28.7421L13.3051 28.8961C13.3097 28.9143 13.3206 28.9301 13.3358 28.9408C13.3509 28.9515 13.3694 28.9561 13.3877 28.9541L14.7384 28.7941C15.11 27.9318 15.7922 26.6255 15.802 26.6055C15.7922 26.2794 15.802 26.0053 15.802 25.6932C15.0294 25.9853 13.6 26.5395 12.8529 26.8936C12.836 26.9046 12.823 26.9209 12.8156 26.9399C12.8082 26.9589 12.8068 26.9798 12.8116 26.9996C12.8116 26.9996 12.8254 27.0496 12.8431 27.1216C12.4774 27.1216 11.3823 27.0676 11.1188 27.3217C11.0778 27.3797 11.0577 27.4504 11.0618 27.5217C11.0461 27.7978 11.1817 29.9424 11.398 30.5726C11.5101 30.9027 11.746 30.8666 11.9072 30.5506C12.0938 30.0746 12.2136 29.5741 12.2631 29.0642C12.2631 29.0381 12.2572 29.0401 12.2591 29.0221ZM12.033 27.2317C12.2729 27.2116 12.3476 27.2157 12.8627 27.1996C12.9551 27.5557 13.1459 28.2879 13.2442 28.662C12.8973 28.7167 12.5549 28.7976 12.2198 28.9041C12.1154 28.3523 12.053 27.7932 12.033 27.2317Z" fill="#111B29"/>
<path d="M30.3549 9.72281C30.404 9.65279 30.3411 9.56277 30.288 9.49275C30.4384 9.33539 30.6052 9.19517 30.7854 9.07463C31.0897 8.92037 31.3677 8.71781 31.6092 8.47447C31.7095 8.36844 31.8983 8.15038 31.8275 8.02235C31.7567 7.89431 31.6309 7.88631 31.4598 7.96033C31.5339 7.88118 31.5945 7.78985 31.6387 7.69026C31.6938 7.53421 31.564 7.40818 31.2829 7.52421C31.3851 7.35817 31.4087 7.18412 31.2357 7.1001C31.0961 7.03208 30.8916 7.19412 30.7736 7.30015C30.542 7.5061 30.3245 7.72801 30.1229 7.96433C29.999 7.70026 29.8024 7.39618 29.5566 7.4922C29.3108 7.58823 29.5016 8.01835 29.6274 8.25241L29.1811 8.56649C29.1136 8.52943 29.0374 8.51215 28.9609 8.51648C28.4536 8.60451 26.1238 10.409 25.8878 10.409C25.707 10.409 23.1235 9.14865 20.89 8.78455C20.8857 8.77091 20.8777 8.75884 20.8669 8.74964C20.8561 8.74043 20.843 8.7345 20.829 8.73254C20.4394 8.66489 20.0446 8.63477 19.6494 8.64252C19.6374 8.64335 19.6258 8.64681 19.6153 8.65266C19.6046 8.65856 19.5956 8.6667 19.5884 8.67653H19.4233C19.3839 8.51448 19.2385 8.14038 19.1873 7.99634C19.321 7.87831 19.5058 7.81829 19.6022 7.62824C19.7791 7.27614 19.7713 6.66398 19.7221 6.27187C19.9443 6.09982 19.9502 5.82375 19.8991 5.54167C19.8794 5.42764 19.8185 5.16957 19.7241 5.10555C19.671 5.06954 19.5589 5.10555 19.4626 5.14156C19.3662 4.9135 19.3662 5.01753 19.4056 4.92551C19.4239 4.88309 19.4346 4.8377 19.437 4.79147C19.5412 4.82348 19.7575 4.61142 19.6828 4.33134C19.6437 4.2311 19.5956 4.13467 19.5393 4.04327C19.5668 3.97525 19.6258 3.89323 19.441 3.64316C19.3614 3.55579 19.258 3.4945 19.1441 3.46711H19.0536C18.9884 3.37076 18.8926 3.30012 18.7823 3.26706C18.6159 3.22384 18.4392 3.24901 18.2908 3.33707C18.2515 3.36708 18.22 3.40709 18.1807 3.4351C18.0917 3.38018 17.9898 3.35115 17.8858 3.35115C17.7817 3.35115 17.6798 3.38018 17.5908 3.4351C17.5388 3.45587 17.4914 3.48715 17.4516 3.52702C17.4118 3.56692 17.3802 3.61457 17.3588 3.66716C17.2625 3.63334 17.1603 3.62031 17.0587 3.62894C16.9573 3.63756 16.8585 3.6676 16.769 3.71718C16.4294 3.90457 16.1752 4.21982 16.0612 4.59542C16.0581 4.65205 16.0581 4.70883 16.0612 4.76546H16.0396C15.7447 4.72145 15.3691 5.43364 15.67 5.98779C15.7053 6.05381 15.7506 6.11583 15.7938 6.18785C15.9197 6.3879 15.8705 6.44792 16.1517 6.69199C16.2342 6.764 16.248 6.758 16.2991 6.80202C16.3502 6.84603 16.3306 6.82402 16.3601 6.93605C16.3761 7.00203 16.405 7.06416 16.4448 7.11876C16.4846 7.17335 16.5347 7.21936 16.5921 7.25414C16.613 7.44983 16.695 7.63351 16.826 7.77828C16.8675 7.82557 16.916 7.86601 16.9696 7.89831C16.984 7.90661 17.0002 7.91141 17.0167 7.91232C17.0757 8.28442 17.1485 8.76855 17.1799 8.97461L17.0049 9.07063C16.7761 9.16437 16.5534 9.2733 16.3384 9.39672C16.3216 9.40861 16.3096 9.4264 16.305 9.44673C16.0966 9.55876 15.9 9.66479 15.7879 9.73281C14.2269 10.6751 9.79325 16.8868 9.74803 17.1708C9.74306 17.1872 9.74306 17.2045 9.74803 17.2208C9.81159 17.324 9.88901 17.4176 9.97806 17.4989C9.95064 17.55 9.91765 17.5975 9.87976 17.641C9.48653 17.903 8.89674 18.2931 8.58019 18.6412C8.55796 18.6614 8.5413 18.6871 8.53186 18.7158C8.52239 18.7444 8.52042 18.7751 8.52618 18.8048C8.53193 18.8344 8.5452 18.8621 8.56468 18.8852C8.58416 18.908 8.60915 18.9253 8.63717 18.9353C8.69616 18.9553 8.70602 18.9493 9.08942 18.7353C8.98403 18.8293 8.89784 18.9435 8.83579 19.0713C8.81023 19.1814 8.90853 19.2454 9.0324 19.2254C9.10207 19.2067 9.16842 19.177 9.22901 19.1374C9.19351 19.1931 9.17467 19.2581 9.17467 19.3244C9.17467 19.3908 9.19351 19.4558 9.22901 19.5115C9.42562 19.7635 9.94074 18.9693 10.2121 18.7733C10.3222 18.9153 10.4716 19.2474 10.7095 19.1594C10.9159 19.0814 10.6898 18.6192 10.7095 18.4852C10.7895 18.407 10.8749 18.3348 10.9651 18.2691C11.1167 18.3835 11.2901 18.4647 11.4743 18.5072C11.7987 18.5072 15.1843 15.0303 15.4419 14.7522C15.3495 15.6364 14.8835 19.4314 14.9818 20.1696C15.027 20.5037 15.8155 20.5518 16.1477 20.5698C16.0475 22.9704 15.9806 26.6074 15.9629 26.6454C15.4419 27.7877 15.3003 28.0998 15.1253 28.4459C14.8068 29.0661 13.4659 31.3547 13.3146 31.8748C13.2929 31.9569 13.291 31.9889 13.3755 32.1409C13.1222 32.412 12.887 32.7001 12.6717 33.0031C12.5635 33.2032 13.0275 35.0677 13.3558 35.7279C13.4306 35.8759 13.5525 36.104 13.7156 36.0982C14.2072 36.08 14.2052 34.2835 14.1914 33.7813C14.1914 33.7659 14.1858 33.751 14.1757 33.7393C14.2648 33.604 14.362 33.4744 14.4667 33.3512C14.5292 33.3951 14.595 33.4338 14.6633 33.4673C14.7302 33.4973 14.8049 33.4453 14.8599 33.3992C15.5146 32.8751 19.0458 28.3979 19.8027 26.2853C20.1468 25.321 20.6049 23.9887 20.7347 23.0444C20.814 22.4474 20.8214 21.8428 20.7563 21.2439C20.7563 21.2354 20.7596 21.2273 20.7655 21.2213C20.7714 21.2153 20.7794 21.2119 20.7877 21.2119C20.7961 21.2119 20.8042 21.2153 20.8101 21.2213C20.816 21.2273 20.8192 21.2354 20.8192 21.2439C20.9177 21.8461 20.9369 22.4591 20.8762 23.0664C20.7307 24.3768 19.7143 27.1075 19.1716 28.1118C19.6395 28.0238 20.5911 27.8317 21.0512 27.6917C22.5848 27.2176 24.0004 25.8032 24.1242 24.2147C24.1644 23.4664 24.1644 22.7165 24.1242 21.9681C24.111 20.935 23.9791 19.9071 23.731 18.9053C24.1478 18.6752 24.5293 18.4052 24.6531 18.1571C24.9185 17.627 24.2166 14.5761 24.0633 13.7199C24.9028 13.8139 26.3322 13.984 26.9987 13.4538C27.7615 12.8297 29.4092 11.0732 30.3549 9.72281ZM14.0853 33.6713C13.7314 33.4533 13.2359 32.9351 13.1612 32.529C13.2418 32.425 13.3264 32.329 13.405 32.2209C13.6715 32.6347 14.0037 33.0005 14.3881 33.3032C14.2801 33.4198 14.179 33.5426 14.0853 33.6713ZM29.7159 8.30842C29.726 8.30184 29.7334 8.29151 29.7362 8.27962C29.7391 8.26769 29.7375 8.2551 29.7316 8.24441C29.6628 8.11437 29.4563 7.65625 29.5999 7.60423C29.6824 7.57223 29.7552 7.62424 29.8161 7.69426C29.9092 7.8144 29.9816 7.94967 30.0304 8.09437C30.0341 8.10612 30.0408 8.11666 30.05 8.12485C30.059 8.13303 30.0701 8.13852 30.0819 8.14082C30.0939 8.14307 30.1062 8.14198 30.1176 8.13769C30.1289 8.1334 30.1389 8.12601 30.1464 8.11637C30.3431 7.89431 30.8031 7.38818 31.0627 7.25214C31.2593 7.14811 31.3064 7.34016 30.8248 7.78828C30.7141 7.87412 30.6078 7.9656 30.5062 8.06236C30.5007 8.07021 30.4976 8.07967 30.4976 8.08938C30.4976 8.09906 30.5007 8.10852 30.5062 8.11637C30.5062 8.16839 30.5475 8.2264 30.6183 8.17239C30.7892 8.01973 30.9699 7.87874 31.159 7.75027C31.2555 7.68051 31.3677 7.63646 31.4854 7.62224C31.4264 7.80629 30.8778 8.30642 30.8307 8.36244C30.8157 8.37612 30.8066 8.39517 30.8053 8.41558C30.8041 8.43599 30.8107 8.4561 30.8238 8.47156C30.837 8.48702 30.8556 8.49662 30.8755 8.49829C30.8957 8.49997 30.9155 8.49357 30.9309 8.48047C31.1492 8.33643 31.5306 8.00034 31.6623 8.05035C31.794 8.10037 31.4028 8.47247 31.3045 8.56049C30.7402 9.05863 30.8857 8.73854 30.233 9.41472C29.9489 9.09802 29.6226 8.82329 29.2637 8.5985L29.7159 8.30842ZM21.1731 17.877C21.1397 17.6009 21.0984 17.3029 21.0473 16.9928L21.1318 16.8788C21.525 16.3646 21.643 15.5464 21.6057 14.9042C21.816 15.8425 21.9831 16.7647 22.1109 17.681L21.1731 17.877ZM18.2495 11.0272C17.7324 10.6271 16.9007 9.93687 16.4171 9.46474L17.2035 9.06463C17.9258 9.751 18.5439 10.5425 19.0379 11.4133C19.7934 12.8253 20.3537 14.3366 20.7032 15.9045L17.8995 11.8694L18.2652 11.0972C18.2702 11.0853 18.2711 11.0722 18.2683 11.0596C18.2655 11.0471 18.259 11.0357 18.2495 11.0272ZM19.5786 8.75855C19.5904 8.78055 19.726 9.07463 19.9325 9.58877C19.9325 9.61078 19.8951 10.1109 19.8774 10.287C19.6265 10.1858 19.3898 10.0512 19.1736 9.88685C19.2168 9.71281 19.4115 8.92259 19.4252 8.74454L19.5786 8.75855ZM18.8806 10.9071C18.8944 10.8711 18.9081 10.8231 18.9239 10.7671L19.0556 10.8371C19.1303 10.8871 19.1008 10.7351 19.1677 11.1752C19.1677 11.2492 19.1873 11.3312 19.1913 11.4213C19.1008 11.2552 18.9888 11.0772 18.8826 10.9071H18.8806ZM18.7705 10.7391C18.3991 10.203 17.9762 9.70579 17.5083 9.25468L18.9888 9.90886C18.9317 10.0469 18.8492 10.469 18.7725 10.7391H18.7705ZM20.2825 11.9114C20.0858 11.3653 19.9345 10.7551 19.8597 10.595C19.8642 10.5451 19.8642 10.4949 19.8597 10.445C19.8883 10.4558 19.9179 10.4625 19.9482 10.465C19.9672 10.4652 19.9856 10.4585 20 10.446C20.0146 10.4335 20.0241 10.4161 20.0269 10.397C20.0426 10.331 20.0682 9.99688 20.0721 9.92286C20.6441 11.3922 21.1215 12.8978 21.5014 14.4301C20.3906 12.0254 20.5616 12.7216 20.2844 11.9114H20.2825ZM21.9084 15.7304C21.4602 13.5438 20.6717 10.8171 19.7752 8.79656C20.1045 8.79674 20.4332 8.82351 20.7583 8.87658C20.9254 10.397 20.7858 10.345 20.8979 10.405C21.0099 10.465 21.6843 10.7411 21.7846 10.7831C21.7747 10.9371 21.9163 15.3423 21.9104 15.7304H21.9084ZM19.6454 5.23359C19.748 5.46118 19.7841 5.7139 19.7496 5.96179C19.7336 6.0249 19.7008 6.08222 19.6546 6.1274C19.6084 6.17261 19.5509 6.20389 19.4883 6.21778C19.4259 6.23168 19.3607 6.22764 19.3002 6.20611C19.2398 6.18457 19.1865 6.14638 19.146 6.09582C19.0522 5.89475 18.9817 5.68327 18.9357 5.46565C18.9888 5.39563 19.555 5.25559 19.6454 5.23359ZM16.9401 7.23413C16.8683 7.20085 16.7948 7.1715 16.7199 7.14611C16.6696 7.12509 16.6248 7.09264 16.5888 7.05125C16.5527 7.00985 16.5265 6.96064 16.5121 6.90732C16.4977 6.85403 16.4954 6.79809 16.5056 6.74374C16.5157 6.68944 16.5378 6.63819 16.5704 6.59396C16.6943 6.48793 16.8064 6.49393 16.9086 6.65197C16.9735 6.77401 16.9715 6.78401 17.001 6.79601C17.0096 6.7998 17.0187 6.80172 17.0279 6.80162C17.0371 6.80151 17.0462 6.7994 17.0546 6.79543C17.063 6.79147 17.0705 6.78568 17.0764 6.77855C17.0824 6.77143 17.0869 6.76306 17.0895 6.754C17.1187 6.6288 17.1232 6.49895 17.1033 6.3719C17.0797 6.23386 17.0757 5.62169 17.0797 5.60169C17.1372 5.6325 17.2016 5.64701 17.2664 5.6437C17.6223 5.6297 17.6931 5.44365 17.8346 5.2916C17.9978 5.30761 18.0313 5.38763 18.2161 5.2916C18.3026 5.24152 18.382 5.17961 18.452 5.10756C18.5085 5.13109 18.5631 5.15921 18.6152 5.19158C18.733 5.24923 18.8659 5.26694 18.9943 5.2421C19.1228 5.21726 19.2401 5.15117 19.3289 5.05354C19.3505 5.09555 19.3702 5.13756 19.3879 5.18158C19.2072 5.23865 19.0371 5.32583 18.8846 5.43965C18.8511 5.48166 18.9003 5.70972 18.9121 5.76373C18.7474 5.78483 18.588 5.83706 18.4422 5.91778C18.4127 5.81375 18.3478 5.61969 18.2456 5.56568C18.2148 5.55611 18.182 5.55611 18.1512 5.56568C17.9742 5.59369 17.3392 5.78774 17.2625 5.89377C17.1957 5.96779 17.3864 6.53994 17.4454 6.63397C17.6715 6.99007 18.334 6.88604 18.4579 6.46992C18.4885 6.33029 18.4885 6.18545 18.4579 6.04581C18.5149 6.04581 18.686 5.98379 18.7056 5.97779C18.8413 6.28788 18.8806 6.30588 19.0379 6.63997C19.0163 6.65798 18.9809 6.68798 18.9514 6.70799C18.8118 6.80202 18.7823 6.78601 18.7902 6.82602C18.7925 6.83395 18.7975 6.84079 18.8044 6.84519C18.8113 6.84963 18.8195 6.85134 18.8275 6.85003C18.9101 6.83802 18.9907 6.81518 19.0674 6.78201C19.1133 6.76459 19.1511 6.73032 19.1736 6.68598C19.2286 6.55995 18.9239 6.08582 18.8039 5.94378C18.8275 5.94378 18.8826 5.90377 18.9239 5.88177C18.9789 6.10583 19.0163 6.28187 19.2286 6.3699C19.2901 6.39347 19.3555 6.4042 19.421 6.40147C19.4865 6.39871 19.5507 6.38252 19.61 6.35389C19.6415 6.70599 19.6356 7.27814 19.4705 7.59023C19.3859 7.75227 19.1775 7.81429 19.0438 7.94833C19.0045 7.98634 19.03 8.04035 19.0438 8.09837C19.262 8.71654 19.266 8.71453 19.2542 8.79456C19.1963 9.12668 19.1156 9.45426 19.0123 9.77482C18.9632 9.75282 18.4107 9.45474 17.3294 9.02662C17.2959 8.80056 17.117 7.59423 17.06 7.37217C17.0639 7.29415 17.0541 7.27614 16.9401 7.22413V7.23413ZM18.3163 6.41791C18.2534 6.63597 17.9565 6.73 17.7442 6.66998C17.5319 6.60996 17.5181 6.49993 17.4178 6.23986C17.3708 6.14053 17.3384 6.03468 17.3215 5.92578C17.3864 5.85376 18.0961 5.70572 18.1846 5.69171C18.3087 5.90774 18.3553 6.16086 18.3163 6.40791V6.41791ZM10.623 18.4292C10.5483 18.5032 10.6485 18.7453 10.6642 18.9553C10.6642 18.9733 10.6642 19.0513 10.6524 19.0573C10.5443 19.0934 10.444 18.9273 10.3831 18.8273C10.3221 18.7273 10.2612 18.5912 10.1648 18.6272C9.96823 18.7213 9.51209 19.3374 9.33318 19.4014C9.24274 19.2254 9.75986 18.7233 9.77755 18.6952C9.78513 18.6824 9.7891 18.6676 9.78903 18.6527C9.78896 18.6377 9.78485 18.6229 9.77716 18.6102C9.76944 18.5974 9.75843 18.5871 9.74535 18.5801C9.73223 18.5732 9.71753 18.5702 9.70284 18.5712C9.66745 18.5712 9.64382 18.6032 9.58877 18.6532C9.42133 18.8195 9.22969 18.9585 9.02057 19.0653C9.21017 18.844 9.41307 18.6349 9.62809 18.4392C9.63875 18.428 9.64622 18.4142 9.64976 18.3992C9.64976 18.3992 9.60847 18.2931 9.52786 18.3351C9.41382 18.3992 8.85934 18.7253 8.6844 18.8093C8.6608 18.7933 8.67457 18.7693 8.6844 18.7453C8.96158 18.3992 9.57111 17.9791 9.94464 17.713C9.9885 17.667 10.025 17.6144 10.0528 17.5569C10.3115 17.8018 10.5875 18.0272 10.8785 18.2311C10.7889 18.291 10.7035 18.3572 10.623 18.4292ZM15.1981 20.2477C15.1548 20.2197 15.1234 20.1937 15.1175 20.1576C15.0093 19.3414 15.611 14.7162 15.6011 14.5341C15.6011 14.5234 15.599 14.5129 15.5949 14.503C15.591 14.4932 15.5849 14.4843 15.5774 14.4768C15.5699 14.4694 15.561 14.4635 15.5512 14.4596C15.5415 14.4557 15.531 14.4538 15.5205 14.4541C15.4203 14.4541 15.5972 14.4541 13.0924 16.8948C12.9273 17.0528 11.665 18.2811 11.4546 18.3632C11.1656 18.3411 10.0783 17.4589 9.90138 17.1808C10.2435 16.4766 14.392 10.6831 15.8272 9.79683C15.9373 9.72881 16.1261 9.62278 16.3325 9.51075C16.404 9.57928 16.4808 9.64148 16.5626 9.6968C17.0187 10.1369 17.6538 10.6851 18.1355 11.0972L17.7599 11.8554C17.7542 11.8654 17.7512 11.8768 17.7512 11.8884C17.7512 11.9 17.7542 11.9114 17.7599 11.9214C20.8094 16.3726 20.7642 16.3226 20.7838 16.3226C20.9793 17.3512 21.1009 18.3928 21.1475 19.4394C21.1475 19.7215 21.1475 19.6975 21.1593 19.6775C21.1711 19.6575 21.1593 19.6915 21.1593 19.6915C20.6835 20.2197 15.9747 20.7118 15.1981 20.2477ZM26.0668 13.6199C25.1761 13.7459 24.1695 13.5579 23.9748 13.5498C23.8667 13.0165 23.6511 12.5118 23.3417 12.0674C23.337 12.061 23.3301 12.0565 23.3222 12.0551C23.3145 12.0536 23.3065 12.0552 23.2998 12.0594C23.2931 12.0637 23.2881 12.0705 23.286 12.0782C23.2841 12.086 23.2849 12.0943 23.2886 12.1015C23.4027 12.3375 23.7841 13.3558 23.8785 13.6039C23.849 13.6999 24.7672 17.5629 24.5076 18.0831C24.2756 18.5532 22.9249 19.1454 22.4373 19.3154C22.341 18.2016 22.1834 17.0943 21.9655 15.9985C22.0323 15.4224 21.9458 11.9974 21.9202 10.7311C21.9194 10.7164 21.9147 10.7022 21.9063 10.6902C21.898 10.6781 21.8865 10.6687 21.873 10.6631L20.9903 10.285C20.9863 9.80956 20.9567 9.3347 20.9018 8.86258C23.1058 9.25068 25.6735 10.533 25.8878 10.535C26.1985 10.535 28.5067 8.73454 28.9845 8.66252C29.1968 8.62851 30.1091 9.43873 30.2153 9.66279C29.2833 10.9872 27.6455 12.7276 26.8866 13.3298C26.6422 13.4961 26.3599 13.596 26.0668 13.6199Z" fill="#111B29"/>
<path d="M18.1142 6.01784C18.1118 6.00471 18.1069 5.9922 18.0996 5.98103C18.0924 5.96983 18.0831 5.96019 18.0723 5.95266C18.0613 5.94517 18.0492 5.93989 18.0362 5.93717C18.0235 5.93444 18.0102 5.93433 17.9972 5.93684C17.9843 5.93931 17.972 5.94437 17.9611 5.95172C17.95 5.95906 17.9406 5.96848 17.9332 5.97954C17.9258 5.9906 17.9205 6.00304 17.9179 6.01613C17.9153 6.02923 17.9151 6.04272 17.9176 6.05585C17.9569 6.25591 17.9648 6.30192 18.0513 6.30192C18.0677 6.30196 18.0837 6.29788 18.0982 6.29003C18.1126 6.28213 18.1249 6.27075 18.1337 6.25682C18.1427 6.24292 18.1482 6.22695 18.1496 6.21037C18.1509 6.19378 18.1483 6.17712 18.1418 6.16188C18.1359 6.12987 18.1182 6.03585 18.1142 6.01784ZM18.7159 7.3422C18.8437 7.38021 18.9656 7.3182 18.9616 7.28619C18.9577 7.25418 18.9616 7.27018 18.7886 7.20417C18.6726 7.16015 18.5448 7.00411 18.4996 7.02812C18.4544 7.05212 18.5232 7.18016 18.5389 7.20417C18.581 7.26909 18.6433 7.31772 18.7159 7.3422ZM22.3119 5.44169C22.0543 6.53998 21.8656 7.47224 21.8341 7.65829C21.8131 7.73922 21.8092 7.82375 21.8223 7.90636C21.9265 8.13242 23.2733 8.57854 23.4444 8.49051C23.6154 8.40249 24.0598 7.38421 24.5768 6.33393C24.8936 6.34422 25.2106 6.32076 25.5225 6.26391C25.8511 6.20258 26.1707 6.09976 26.4741 5.95783C27.1387 5.64574 27.8661 4.30938 27.9645 3.6372C28.0382 2.9074 27.8863 2.1724 27.5299 1.53463C25.8804 -1.37617 21.0418 0.19026 21.435 3.42314C21.5472 4.16287 21.8498 4.85927 22.3119 5.44169ZM23.5112 7.82433C23.5112 7.85634 23.4758 7.85234 23.3146 7.82433C22.9848 7.78218 22.6655 7.6784 22.3728 7.51825C22.2352 7.44223 22.1978 7.42623 22.2116 7.39222C22.2254 7.35821 22.2549 7.37021 22.4672 7.43023C22.4869 7.43023 23.0964 7.63028 23.2713 7.6923C23.4974 7.79633 23.5112 7.79633 23.5112 7.82433ZM23.4758 4.56945C23.6857 4.58051 23.8949 4.53646 24.0833 4.44141C24.2583 4.52769 24.4477 4.57996 24.6417 4.59546C24.3114 5.22163 23.641 6.49797 23.4247 7.17816L22.5911 6.9441C22.7877 6.45196 23.2222 5.29965 23.4719 4.56945H23.4758ZM23.407 4.4034C23.2602 4.38085 23.1247 4.30992 23.0215 4.20153C22.9181 4.0931 22.8526 3.95321 22.8349 3.80324C22.7798 3.40313 23.0315 2.95501 23.4109 3.06104C23.6488 3.12706 23.6783 3.31911 23.637 3.56118C23.6017 3.73722 23.4739 4.17934 23.4031 4.3954L23.407 4.4034ZM23.9418 3.92327C23.9628 3.79237 24.0111 3.66753 24.0833 3.55717C24.1177 3.49701 24.1681 3.44787 24.2285 3.41535C24.289 3.3828 24.3571 3.36818 24.4255 3.37312C24.5709 3.41714 24.6339 3.69721 24.5139 3.87326C24.3986 4.0289 24.2552 4.16065 24.0912 4.26137C24.0347 4.22768 23.9898 4.17723 23.9624 4.11678C23.9351 4.05636 23.9264 3.98882 23.9379 3.92327H23.9418ZM22.1349 1.38059C23.0157 0.30229 24.6732 -0.125826 25.8705 0.318294C26.521 0.545487 27.0681 1.0055 27.41 1.61265C27.749 2.21953 27.894 2.91867 27.8249 3.61319C27.7344 4.23536 27.0384 5.52771 26.427 5.81379C25.8679 6.07328 25.2579 6.19916 24.6437 6.18189C24.5768 6.18189 24.5061 6.18189 24.4805 6.2299C24.3645 6.46997 24.1522 6.93409 23.9438 7.37021C23.7997 7.2995 23.6506 7.24061 23.4974 7.19416C23.7255 6.52998 24.4451 5.22563 24.7872 4.59346C25.0836 4.61928 25.3816 4.56694 25.6523 4.44141C25.7254 4.40224 25.786 4.34266 25.8271 4.26962C25.8681 4.19662 25.8879 4.11322 25.884 4.02919C25.8801 3.94521 25.8525 3.86409 25.805 3.79535C25.7573 3.72664 25.6915 3.67313 25.615 3.6412C25.3102 3.48916 25.0369 3.85326 24.8777 4.15934C24.8344 4.23936 24.7852 4.33339 24.7302 4.43941C24.5711 4.42879 24.4143 4.3958 24.2642 4.34139C24.4137 4.23445 24.5464 4.10496 24.6575 3.95728C24.7197 3.86162 24.7512 3.74868 24.7477 3.63403C24.7441 3.51935 24.7058 3.40862 24.6378 3.31711C24.5844 3.254 24.5102 3.21286 24.4291 3.20144C24.3479 3.19002 24.2656 3.20912 24.1974 3.25509C24.0596 3.34119 23.9493 3.46588 23.8795 3.61421C23.8099 3.76254 23.7837 3.92822 23.8042 4.09132C23.8255 4.18338 23.8743 4.26653 23.9438 4.32938C23.8148 4.38373 23.6764 4.41097 23.5368 4.40941C23.6154 4.17334 23.7432 3.74723 23.7766 3.57318C23.7976 3.47395 23.8022 3.37189 23.7904 3.2711C23.7752 3.1846 23.7357 3.1044 23.6767 3.04016C23.6179 2.97589 23.5418 2.93039 23.4581 2.909C22.9804 2.77096 22.6284 3.30911 22.6972 3.81124C22.7166 3.99118 22.7926 4.15996 22.9137 4.29257C23.0348 4.42519 23.1947 4.51456 23.3696 4.54744C23.118 5.26764 22.7248 6.42996 22.5282 6.92609L22.0956 6.81206C22.3728 5.39567 22.4063 5.42968 22.3669 5.41168C21.9201 4.83214 21.6344 4.1413 21.5392 3.41113C21.4928 3.04907 21.522 2.68115 21.6246 2.33133C21.7271 1.98147 21.9011 1.65753 22.1349 1.38059ZM24.8639 4.45142C25.0015 4.19735 25.2768 3.6412 25.5442 3.77723C25.5976 3.79917 25.6443 3.83554 25.6788 3.88243C25.7136 3.92931 25.7349 3.98493 25.7408 4.04331C25.7368 4.3954 25.1981 4.45742 24.856 4.45142H24.8639ZM32.3902 5.33366C32.6271 5.19187 32.9069 5.14346 33.1766 5.19762C33.4729 5.203 33.7558 5.32351 33.9675 5.53444C34.1793 5.74537 34.3034 6.03068 34.3148 6.33193C34.1368 6.22677 33.9285 6.1872 33.7252 6.2199C33.2317 6.26391 32.5868 6.53598 32.6733 7.02012C32.7441 7.42022 33.2631 7.36621 33.6563 7.25818C34.0496 7.15015 34.362 6.9541 34.4428 6.56799C34.9204 6.92209 35.0326 7.54226 35.0523 8.14842C35.0523 8.1569 35.0555 8.16504 35.0616 8.17105C35.0673 8.17705 35.0755 8.18043 35.0838 8.18043C35.092 8.18043 35.1002 8.17705 35.1059 8.17105C35.112 8.16504 35.1152 8.1569 35.1152 8.14842C35.1288 7.47024 35.009 6.80606 34.4642 6.41995C34.47 6.24627 34.4407 6.07324 34.3788 5.9113C34.317 5.74941 34.2229 5.60198 34.1036 5.47795C33.9839 5.35395 33.8407 5.25596 33.6827 5.18987C33.5248 5.12382 33.3552 5.09105 33.1845 5.09359C32.9115 5.05304 32.6333 5.11109 32.398 5.25764C32.3253 5.29365 32.3587 5.34766 32.3902 5.33366ZM34.1833 6.76805C33.9611 7.06413 33.3319 7.21817 33.041 7.16816C32.9328 7.15015 32.8443 7.10414 32.8208 6.99011C32.75 6.59 33.4283 6.37194 33.8333 6.35794C33.9981 6.34506 34.1625 6.38798 34.3012 6.47997C34.2862 6.58458 34.2458 6.68366 34.1833 6.76805ZM31.4897 2.99502C31.7001 2.73095 31.5585 2.27083 30.9706 2.26883C30.7426 2.26883 30.6325 2.50489 30.6482 2.73095C30.6836 3.2691 31.2793 3.25309 31.4897 2.99502ZM30.7858 2.72095C30.7858 2.58892 30.8468 2.41687 30.9824 2.41887C31.299 2.41887 31.4445 2.56891 31.4445 2.73495C31.4366 3.11305 30.7603 3.30911 30.7858 2.72095ZM30.7052 25.4011C28.977 24.6989 28.1748 28.0978 26.7632 31.0186C26.7542 31.1413 26.7582 31.2649 26.775 31.3867C26.775 31.6928 26.8084 33.7194 26.9834 33.9494C27.0306 34.0415 27.2291 33.9494 27.3215 33.8914C28.1063 33.3971 28.8459 32.832 29.5314 32.203C29.5373 32.1961 29.5416 32.1883 29.5444 32.1796C29.547 32.1709 29.548 32.162 29.5472 32.1529C29.9129 31.6228 31.2833 28.862 31.6155 27.4777C31.8475 26.4974 31.6175 25.7672 30.7052 25.4011ZM31.3226 27.9418C30.3974 27.8211 29.5028 27.5239 28.686 27.0656C29.1461 26.1793 29.7143 25.169 30.6521 25.5492C31.6961 25.9713 31.6745 26.8455 31.3226 27.9358V27.9418ZM28.051 33.1432C27.9905 33.0917 27.9246 33.0474 27.8544 33.0112C27.5886 32.8738 27.2817 32.8436 26.9952 32.9272C26.9755 32.6891 26.8634 31.1407 26.8634 31.1267C28.3361 31.6748 27.8819 31.4367 29.3407 32.1749C29.1874 32.323 28.6113 32.7331 28.051 33.1392V33.1432ZM29.0655 27.3536C29.2572 27.4602 29.4541 27.557 29.6553 27.6437C29.2046 28.3639 28.8065 29.117 28.4638 29.8963C28.1335 30.5985 28.1453 30.5945 27.8091 31.3607C27.6125 31.2967 27.4159 31.2367 27.2193 31.1767C27.4316 30.7466 28.9416 27.6017 29.0655 27.3496V27.3536ZM27.8858 31.3807C28.5248 30.2144 29.1756 28.764 29.734 27.6697C29.9306 27.7537 30.1272 27.8218 30.3238 27.8818C30.2196 28.0818 29.9148 28.614 29.8342 28.768C29.7536 28.9221 28.9455 30.5425 28.8885 30.6665C28.7981 30.8666 28.5504 31.4247 28.4737 31.6028C28.2731 31.5128 28.0805 31.4448 27.8779 31.3767L27.8858 31.3807ZM28.5445 31.6288C28.6644 31.4067 29.1579 30.4745 29.2188 30.3545C29.3112 30.1684 30.3415 28.0258 30.3985 27.9018C30.5794 27.9538 30.7701 27.9978 30.892 28.0218C30.5322 29.0221 29.4961 30.9486 29.1225 31.8989C28.7824 31.7368 28.7057 31.6968 28.5366 31.6248L28.5445 31.6288ZM28.6644 27.1236L29.0163 27.3236C28.3071 28.5526 27.6893 29.8338 27.1682 31.1567L26.8733 31.0646C28.0156 28.588 28.0687 28.2639 28.6565 27.1196L28.6644 27.1236ZM29.4744 32.0729L29.1775 31.9289C29.498 31.2887 30.5007 29.6463 30.9588 28.0358C31.0689 28.0558 31.1771 28.0738 31.2813 28.0878C30.776 29.4596 30.1694 30.7904 29.4666 32.0689L29.4744 32.0729ZM23.3146 33.3713C23.3929 33.3053 23.4489 33.2159 23.4747 33.1157C23.5004 33.0155 23.4947 32.9097 23.4581 32.8131C23.4414 32.6737 23.3787 32.5442 23.28 32.446C23.1814 32.3478 23.0528 32.2867 22.9155 32.2728C22.7782 32.2588 22.6402 32.2928 22.5245 32.3692C22.4087 32.4455 22.3219 32.5599 22.2785 32.6931C22.0268 32.527 21.7535 32.351 21.492 32.183C21.6886 31.9169 22.2667 32.0349 22.3256 32.253C22.327 32.2615 22.3315 32.2692 22.3383 32.2741C22.3451 32.2792 22.3537 32.2813 22.362 32.28C22.3704 32.2787 22.3777 32.274 22.3828 32.2672C22.3877 32.2601 22.3899 32.2515 22.3886 32.243C22.3591 31.8949 21.6473 31.6908 21.3603 32.1009C21.1067 31.9429 20.7921 31.7508 20.5286 31.6048C20.7547 31.4047 21.26 31.5168 21.3151 31.7248C21.3177 31.732 21.3226 31.7378 21.3291 31.7417C21.3355 31.7453 21.3432 31.7467 21.3505 31.7452C21.3578 31.7437 21.3644 31.7397 21.3691 31.7337C21.3737 31.7278 21.3762 31.7203 21.376 31.7128C21.3505 31.3887 20.6918 31.1707 20.393 31.5268C20.2678 31.4554 20.136 31.3964 19.9997 31.3507C19.9748 31.3402 19.9475 31.3372 19.9209 31.3422C19.8944 31.3472 19.8698 31.3599 19.8503 31.3787C19.3529 32.0089 17.6758 33.6454 16.9011 33.8354C16.8817 33.8384 16.8633 33.8466 16.8479 33.8591C16.8325 33.8716 16.8207 33.8879 16.8135 33.9066C16.8063 33.9253 16.804 33.9456 16.8069 33.9653C16.8101 33.9851 16.8181 34.0038 16.8304 34.0195C17.0004 34.1952 17.1952 34.3442 17.4084 34.4616C17.2118 34.6616 17.0584 34.8417 16.9444 34.9717C16.8854 35.0357 16.854 36.2601 16.9051 36.5303C16.9126 36.5565 16.9295 36.5794 16.9523 36.5943C17.2 36.7664 20.391 38.1708 20.7174 37.9827C20.9356 37.8565 23.5407 35.0977 23.582 35.0137C23.6449 34.8817 23.6233 34.0014 23.6193 33.6493C23.6036 33.5433 23.409 33.4293 23.3146 33.3713ZM17.023 36.0142V35.5679C17.839 35.968 19.7068 36.7842 20.4146 37.0123C20.5955 37.0723 20.6112 37.0643 20.7056 37.0123C21.2462 36.6602 23.1553 34.4716 23.5053 34.1375V34.5596C22.4436 35.6421 20.6407 37.5386 20.6073 37.4306C20.4126 37.4186 17.1921 36.0942 17.023 36.0142ZM23.2654 32.6971C23.336 32.8183 23.3741 32.9563 23.3755 33.0972C23.3749 33.142 23.3641 33.1861 23.3439 33.2261C23.3238 33.2659 23.2949 33.3006 23.2595 33.3273C23.0944 33.2152 22.7818 33.0072 22.4122 32.7631C22.6147 32.357 23.0649 32.351 23.2576 32.6971H23.2654ZM16.9739 33.9774C17.8114 33.7254 19.402 32.1649 19.9368 31.4888C20.0654 31.5253 20.1896 31.577 20.3064 31.6428C20.1098 32.0149 20.3202 32.423 20.3949 32.365C20.4362 32.333 20.3615 32.321 20.3497 32.1249C20.3446 31.9817 20.3766 31.8397 20.4421 31.7128C20.7134 31.8569 21.0319 32.0449 21.3013 32.203C21.1361 32.5771 21.3347 32.9472 21.4035 32.8931C21.4723 32.8391 21.3721 32.8511 21.3603 32.6551C21.3555 32.5265 21.3796 32.3985 21.4311 32.281C21.7083 32.447 21.9914 32.6191 22.2509 32.7811C22.211 32.8808 22.1951 32.9888 22.2046 33.096C22.2142 33.2032 22.249 33.3066 22.306 33.3973C22.3086 33.4006 22.3117 33.4036 22.3155 33.4058C22.3191 33.4078 22.3232 33.4093 22.3273 33.4098C22.3315 33.4103 22.3358 33.4101 22.3399 33.409C22.344 33.4078 22.3478 33.4059 22.3512 33.4033C22.3545 33.4006 22.3574 33.3975 22.3594 33.3936C22.3615 33.3899 22.363 33.3858 22.3635 33.3815C22.364 33.3773 22.3638 33.3729 22.3627 33.3688C22.3615 33.3646 22.3597 33.3606 22.3571 33.3573C22.3217 33.2778 22.3043 33.1912 22.306 33.104C22.3076 33.0168 22.3284 32.9312 22.3669 32.8531C22.825 33.1372 23.1947 33.3753 23.3087 33.4533C23.2871 33.4733 21.2364 35.3298 20.5384 35.8821C20.0803 35.7599 17.6758 34.5456 16.9739 33.9774ZM17.0486 35.0917C17.9392 35.4919 19.9624 36.4201 20.4283 36.5103C20.509 36.5263 20.5404 36.5321 20.6938 36.4081C21.3485 35.8741 23.4778 33.6073 23.4974 33.6313C23.4984 33.6373 23.4984 33.6433 23.4974 33.6493V34.0495C23.059 34.4076 20.621 37.0123 20.5817 36.8882C20.3851 36.8882 17.1902 35.5621 17.027 35.4879C17.023 35.4038 17.0407 35.1798 17.0486 35.0917ZM20.6289 37.8485C20.4323 37.9627 17.4379 36.7242 17.0368 36.4721C17.0217 36.3444 17.0145 36.2164 17.0152 36.088C17.8763 36.5201 20.3812 37.5964 20.6112 37.5866C20.9474 37.5684 23.3244 34.8457 23.4935 34.6556C23.4955 34.7578 23.4855 34.8599 23.464 34.9597C23.4306 35.0257 20.7587 37.7747 20.6289 37.8485ZM4.33957 26.5714C4.35333 26.7855 4.36317 26.9715 4.36317 27.1456C4.36317 27.1721 4.37353 27.1976 4.39194 27.2163C4.41039 27.2351 4.43538 27.2456 4.46147 27.2456C4.48753 27.2456 4.51255 27.2351 4.53096 27.2163C4.54941 27.1976 4.55978 27.1721 4.55978 27.1456C4.55978 26.9595 4.54995 26.7755 4.53618 26.5574C4.53436 26.5309 4.52224 26.5062 4.50251 26.4888C4.48278 26.4712 4.45707 26.4626 4.43098 26.4644C4.40492 26.4662 4.38065 26.4786 4.36349 26.4986C4.34633 26.5188 4.33775 26.5449 4.33957 26.5714ZM34.2973 22.5603C34.2844 22.5612 34.2719 22.5645 34.2601 22.5702C34.2487 22.576 34.2383 22.584 34.2301 22.594C34.2215 22.6038 34.2151 22.6154 34.2112 22.6277C34.2072 22.6402 34.2058 22.6534 34.2069 22.6664C34.2187 22.8504 34.2305 23.0485 34.2305 23.2405C34.2305 23.267 34.2408 23.2925 34.2594 23.3112C34.2776 23.33 34.3027 23.3405 34.3288 23.3405C34.3549 23.3405 34.3799 23.33 34.3981 23.3112C34.4167 23.2925 34.4271 23.267 34.4271 23.2405C34.4271 23.0405 34.4153 22.8404 34.4013 22.6524C34.4006 22.6394 34.3974 22.6265 34.3917 22.6149C34.386 22.603 34.3781 22.5925 34.3684 22.584C34.3588 22.5754 34.3474 22.5688 34.3352 22.5648C34.323 22.5608 34.3102 22.5592 34.2973 22.5603ZM3.83035 26.0733C3.85641 26.0733 3.88143 26.0628 3.89984 26.0439C3.91829 26.0253 3.92865 25.9998 3.92865 25.9733C3.92865 25.9467 3.91829 25.9212 3.89984 25.9026C3.88143 25.8837 3.85641 25.8732 3.83035 25.8732C3.59245 25.8732 3.39387 25.8912 3.19726 25.8872C3.17099 25.8872 3.14578 25.8978 3.12705 25.9164C3.10829 25.9351 3.09749 25.9606 3.09699 25.9873C3.09699 26.0138 3.10736 26.0393 3.12577 26.0579C3.14421 26.0768 3.1692 26.0873 3.19529 26.0873C3.3978 26.0913 3.61997 26.0833 3.83035 26.0733ZM33.6878 21.9682C33.4519 21.9682 33.2533 21.9822 33.0547 21.9842C33.0287 21.9842 33.0036 21.9947 32.9853 22.0135C32.9667 22.0322 32.9564 22.0577 32.9564 22.0842C32.9564 22.1107 32.9667 22.1362 32.9853 22.1549C33.0036 22.1737 33.0287 22.1842 33.0547 22.1842C33.2671 22.1842 33.4873 22.1842 33.6996 22.1682C33.7257 22.1666 33.7501 22.1546 33.7674 22.1347C33.7846 22.1149 33.7935 22.0887 33.792 22.0622C33.7904 22.0357 33.7786 22.0108 33.7591 21.9932C33.7394 21.9755 33.7139 21.9665 33.6878 21.9682ZM4.28649 24.837C4.29828 25.021 4.31008 25.2191 4.31008 25.4111C4.31058 25.4374 4.32109 25.4626 4.33943 25.4813C4.35773 25.5 4.38247 25.5106 4.40839 25.5111C4.43445 25.5111 4.45947 25.5006 4.47788 25.4818C4.49633 25.4631 4.50669 25.4376 4.50669 25.4111C4.50669 25.2111 4.49489 25.011 4.4831 24.823C4.48127 24.7964 4.46916 24.7718 4.44942 24.7543C4.42969 24.7368 4.40399 24.7281 4.37789 24.7299C4.35183 24.7318 4.32756 24.7441 4.3104 24.7641C4.29324 24.7843 4.28466 24.8104 4.28649 24.837ZM34.3738 21.5061C34.3738 21.306 34.362 21.1059 34.3484 20.9179C34.3466 20.8914 34.3345 20.8667 34.3148 20.8492C34.2952 20.8317 34.2694 20.823 34.2433 20.8249C34.2172 20.8267 34.1929 20.839 34.1758 20.859C34.1586 20.8792 34.15 20.9054 34.1518 20.9319C34.1636 21.1159 34.1754 21.314 34.1754 21.5061C34.1754 21.5326 34.1858 21.5581 34.2044 21.5767C34.2226 21.5956 34.2476 21.6061 34.2737 21.6061C34.2998 21.6061 34.3252 21.5956 34.3438 21.5769C34.3627 21.5582 34.3734 21.5327 34.3738 21.5061ZM5.73748 26.0473C5.75038 26.0468 5.76307 26.0436 5.7748 26.0381C5.78652 26.0326 5.7971 26.0248 5.80586 26.0151C5.81462 26.0055 5.82145 25.9943 5.82588 25.9818C5.83035 25.9694 5.83239 25.9564 5.83185 25.9433C5.82985 25.9171 5.81823 25.8926 5.79925 25.8747C5.7803 25.8571 5.75542 25.8472 5.72961 25.8472C5.49171 25.8572 5.29314 25.8652 5.09456 25.8612C5.06846 25.8612 5.04348 25.8717 5.02503 25.8906C5.00662 25.9092 4.99625 25.9347 4.99625 25.9613C4.99625 25.9878 5.00662 26.0133 5.02503 26.0319C5.04348 26.0508 5.06846 26.0613 5.09456 26.0613C5.30493 26.0653 5.52514 26.0573 5.73748 26.0473ZM35.5949 21.9422C35.3983 21.9522 35.1799 21.9582 34.9618 21.9582C34.949 21.9577 34.9361 21.9598 34.9236 21.9645C34.9114 21.9692 34.9007 21.9764 34.8911 21.9853C34.8818 21.9945 34.8743 22.0055 34.8693 22.0177C34.8643 22.0299 34.8614 22.043 34.8614 22.0562C34.8614 22.0829 34.8718 22.1085 34.8904 22.1277C34.9086 22.1467 34.9336 22.1577 34.9597 22.1582C35.1838 22.1582 35.3647 22.1582 35.6028 22.1422C35.6157 22.1417 35.6282 22.1386 35.64 22.1331C35.6518 22.1276 35.6625 22.1197 35.6711 22.1101C35.68 22.1004 35.6868 22.0892 35.6911 22.0767C35.6957 22.0644 35.6975 22.0514 35.6972 22.0382C35.6947 22.0122 35.6829 21.988 35.6639 21.9704C35.6453 21.9525 35.6207 21.9425 35.5949 21.9422ZM1.21934 20.1197C1.2449 20.1397 6.78935 19.3035 7.02725 19.1554C7.04044 19.1456 7.05095 19.1326 7.05781 19.1176C7.06468 19.1026 7.06771 19.0859 7.06657 19.0694C7.06657 18.8113 6.7343 16.3887 6.57504 15.7845C6.55538 15.7105 6.53572 15.6365 6.4905 15.6104C6.18968 15.4264 0.889033 16.4427 0.572489 16.6507C0.563917 16.6559 0.556496 16.6629 0.550744 16.6711C0.544978 16.6794 0.541014 16.6887 0.539062 16.6987C0.472214 16.9408 1.04828 19.9996 1.21934 20.1197ZM0.658998 16.7468C1.03649 16.5727 5.84758 15.6765 6.39809 15.7465C6.53179 16.0966 6.88962 18.6613 6.91321 19.0374C6.63992 19.1194 1.29405 20.0537 1.27439 20.0577C1.25473 20.0617 1.25276 20.0857 1.21148 19.9596C1.03846 19.4315 0.649168 17.1989 0.658998 16.7468Z" fill="#111B29"/>
<path d="M7.45961 19.3334C7.4703 19.3132 7.47509 19.2902 7.47337 19.2674C7.47337 18.9493 7.0251 15.4184 6.86584 15.1363C6.85337 15.1155 6.83571 15.0984 6.81462 15.0868C6.79356 15.0752 6.76986 15.0695 6.74591 15.0703C6.08726 14.9882 0.531027 16.0925 0.16533 16.3506C0.114211 16.3866 0.122076 16.4766 0.127974 16.5727C0.159432 17.0988 0.717808 20.5598 0.914419 20.5397C0.936046 20.5397 0.928182 20.5237 0.877063 20.6298C0.570349 21.2719 -0.01162 23.3285 0.00017664 23.7426C0.00017664 23.9167 0.039499 24.1427 0.208585 24.1307C1.42168 23.9787 7.36917 23.0184 9.07968 22.6603C9.14653 22.6463 9.18979 22.5843 9.18782 22.4823C9.16762 22.3122 9.11701 22.1475 9.0384 21.9961C8.79853 21.538 7.80368 19.7235 7.45961 19.3334ZM0.926216 20.4777C0.772859 20.2777 0.208585 16.8307 0.251839 16.4486C0.684384 16.2206 6.16591 15.1423 6.74001 15.2303C6.8973 15.6704 7.30428 18.8493 7.32984 19.2314C6.63384 19.4755 1.8149 20.2677 0.926216 20.4777ZM1.01272 20.5377C1.17788 20.4957 6.80293 19.5375 7.31805 19.3994C7.5992 19.6655 8.86931 21.9641 8.95189 22.1602C7.82334 22.3602 1.12873 23.4985 0.143703 23.6506C0.157466 23.0444 0.768927 20.9258 1.01272 20.5377Z" fill="#111B29"/>
<path d="M1.75215 22.6123C1.9232 22.5863 5.55264 22.1422 6.86404 21.7801C6.87212 21.778 6.87906 21.7726 6.88331 21.7654C6.88753 21.7581 6.88874 21.7493 6.88667 21.7411C6.88456 21.7329 6.87938 21.7258 6.87216 21.7216C6.86497 21.7173 6.85639 21.7159 6.84831 21.7181C6.59075 21.7721 3.4489 22.1982 1.74822 22.5503C1.74352 22.5495 1.73868 22.5497 1.7341 22.551C1.72951 22.5523 1.72526 22.5546 1.72171 22.558C1.71813 22.5612 1.71535 22.5652 1.71353 22.5697C1.71173 22.5742 1.71094 22.579 1.71125 22.5838C1.71157 22.5887 1.71294 22.5935 1.71532 22.5977C1.71768 22.6018 1.72096 22.6055 1.72489 22.6081C1.72883 22.611 1.73334 22.6128 1.73806 22.6135C1.74278 22.6142 1.74759 22.6138 1.75215 22.6123ZM4.40443 8.69255C4.33097 8.86132 4.26924 9.03515 4.21962 9.21269C4.21669 9.24117 4.22441 9.26976 4.24125 9.29271C4.43982 9.5968 6.47475 11.9314 7.0056 12.2595C7.07835 12.3055 7.16486 12.3375 7.21794 12.2715C7.60355 11.7833 8.10684 11.4049 8.67876 11.1732C9.14427 11.0057 9.63233 10.9118 10.1258 10.8951C10.519 10.8591 10.5879 10.8191 10.7392 10.5571C10.9178 10.2122 11.1548 9.90201 11.4392 9.64081C11.8018 9.31818 12.2044 9.04512 12.6365 8.82859C12.656 8.81738 12.6712 8.79985 12.6798 8.77883C12.6883 8.7578 12.6897 8.73449 12.6837 8.71256C12.6173 8.54047 12.5294 8.37777 12.4222 8.22842C12.493 8.20442 12.5717 8.18241 12.5717 8.11039C12.5717 7.91034 10.8572 5.38565 10.3814 4.90952C10.3323 4.85951 10.2615 4.79349 10.1966 4.79749C9.21354 4.85351 8.25605 5.79776 7.70161 6.62199C7.06655 6.59798 6.65563 6.53997 5.9321 6.85005C5.42131 7.07065 4.96081 7.39623 4.57942 7.80631C4.52043 7.86833 4.11935 8.30044 4.11345 8.33445C4.10755 8.36846 4.11935 8.36846 4.40443 8.69255ZM12.2689 8.63654C11.449 8.77857 10.926 9.47276 10.5407 10.227C10.3696 10.5631 10.3853 10.5791 10.2045 10.5751C9.88817 10.5568 9.57088 10.5689 9.2568 10.6111C9.02641 10.6461 8.79991 10.7038 8.58046 10.7831C8.08106 10.9632 7.50893 11.5393 7.20418 11.9674C7.19771 11.9762 7.18945 11.9836 7.18001 11.9889C7.17058 11.9942 7.16014 11.9975 7.14934 11.9984C7.13858 11.9994 7.12775 11.998 7.11753 11.9944C7.10734 11.9908 7.09801 11.985 7.09014 11.9774C6.45116 11.3073 5.32064 10.1309 4.75244 9.45476C4.72491 9.42475 4.7721 9.38074 4.79962 9.41275C5.16729 9.81285 6.11692 10.7711 7.13536 11.8134C7.47943 11.3673 8.01028 10.8271 8.53524 10.6391C8.8215 10.5352 9.11939 10.468 9.42195 10.439C9.70532 10.4171 9.98991 10.4171 10.2733 10.439C10.3893 10.303 10.9634 8.75857 12.265 8.58652C12.2687 8.58936 12.2719 8.59303 12.2741 8.59729C12.2764 8.60154 12.2776 8.60624 12.2777 8.61104C12.278 8.61584 12.2771 8.62064 12.2752 8.62504C12.2733 8.62948 12.2705 8.63337 12.2669 8.63654H12.2689ZM10.1946 4.95954C10.5879 5.23961 12.1883 7.65027 12.3967 8.07238C12.0351 8.18896 11.686 8.34246 11.3546 8.53051C11.0409 8.69055 10.7662 8.91974 10.5506 9.20145C10.3349 9.48317 10.1838 9.81027 10.1081 10.1589C9.40229 8.99063 8.41727 7.70428 7.76255 6.75803C7.80188 6.73202 8.90683 5.03756 10.1946 4.95954ZM5.97536 6.96008C6.69299 6.666 7.09014 6.73402 7.68391 6.76003C8.27374 7.7843 9.33348 9.2287 10.0314 10.175C9.38724 10.0199 8.70936 10.1147 8.13022 10.441C7.78222 10.6411 7.35754 11.1212 7.09604 11.4193C6.71855 11.1112 4.5401 8.75057 4.19013 8.35046C4.72884 7.73029 5.22627 7.26416 5.97536 6.95208V6.96008ZM2.37737 12.0475C2.32879 12.0128 2.27134 11.9932 2.212 11.991C2.15266 11.9889 2.094 12.0043 2.04313 12.0355C2.0061 12.0523 1.97264 12.0763 1.94476 12.1063C1.91683 12.1363 1.895 12.1715 1.88049 12.2101C1.86597 12.2486 1.85906 12.2897 1.86016 12.331C1.86124 12.3722 1.8703 12.4129 1.88683 12.4506C1.90334 12.4883 1.92703 12.5223 1.95645 12.5507C1.9859 12.5791 2.02054 12.6013 2.05843 12.6161C2.09633 12.6309 2.13668 12.6379 2.17726 12.6367C2.2178 12.6357 2.25776 12.6264 2.2948 12.6096C2.35399 12.5964 2.40786 12.5653 2.44922 12.5202C2.49062 12.4752 2.51757 12.4185 2.52651 12.3575C2.53548 12.2965 2.52601 12.2342 2.49938 12.1789C2.47275 12.1235 2.43021 12.0777 2.37737 12.0475ZM2.24761 12.4476C2.10998 12.4916 2.0274 12.4476 1.99398 12.3796C1.93106 12.2375 2.00971 12.0195 2.21418 12.0835C2.35771 12.1375 2.47371 12.3836 2.24761 12.4576V12.4476ZM12.3751 2.89298C12.4321 3.01101 12.6975 2.967 12.8135 2.92898C12.8744 2.90898 12.9138 2.88697 12.9197 2.82696C12.9374 2.67692 12.957 1.37657 12.8902 1.25053C12.8833 1.23731 12.8727 1.22648 12.8597 1.21936C12.8468 1.21224 12.8321 1.20915 12.8174 1.21052C12.6077 1.20992 12.3989 1.24095 12.1981 1.30255C12.1175 1.35256 12.3043 2.76094 12.3751 2.89298ZM12.2394 1.35056C12.421 1.32412 12.6047 1.31542 12.7879 1.32455C12.7997 1.47259 12.7683 2.75494 12.7663 2.77494C12.6832 2.80524 12.5945 2.81619 12.5068 2.80695C12.493 2.76094 12.4694 2.63691 12.4399 2.48087C12.3533 2.10802 12.2864 1.7307 12.2394 1.35056ZM2.18666 10.359C2.20553 10.3689 2.22641 10.374 2.24761 10.374C2.26881 10.374 2.28968 10.3689 2.30856 10.359C2.38452 10.3113 2.44476 10.2417 2.48158 10.1589C2.48658 10.1457 2.48812 10.1314 2.48604 10.1174C2.48397 10.1033 2.47839 10.0901 2.46978 10.0789C2.37541 9.9649 1.34516 8.75057 1.21933 8.82659C1.06483 8.92836 0.918256 9.04206 0.780889 9.16668C0.775351 9.17174 0.770912 9.17788 0.767866 9.18476C0.764817 9.19167 0.763229 9.19912 0.763194 9.20669C0.759261 9.31072 1.90354 10.243 2.18666 10.359ZM1.24292 8.8786C1.38645 8.98463 1.87011 9.59279 2.31839 10.1309C2.29912 10.1618 2.27524 10.1895 2.24761 10.213C1.7763 9.90604 1.32631 9.56646 0.900822 9.19669C1.00749 9.08273 1.1218 8.97645 1.24292 8.8786ZM4.33169 4.4654C4.37494 3.68919 4.81928 3.32909 5.28329 3.23707C5.15156 3.7292 5.17318 4.36938 5.65095 4.4514C5.87902 4.48941 5.99109 4.36938 6.15624 4.22934C6.86207 3.62918 6.2919 3.02901 5.49563 3.07102C5.79251 2.2428 6.47868 1.56862 7.38899 1.54661C7.39732 1.54661 7.40533 1.54324 7.41123 1.53724C7.41713 1.53123 7.42045 1.52309 7.42045 1.5146C7.42045 1.50612 7.41713 1.49797 7.41123 1.49197C7.40533 1.48596 7.39732 1.4826 7.38899 1.4826C6.40594 1.46259 5.63325 2.18279 5.32851 3.08303C4.80356 3.17505 4.28254 3.57516 4.26877 4.4534C4.26799 4.45762 4.26802 4.46191 4.26892 4.46609C4.26977 4.47028 4.27145 4.47424 4.27381 4.47781C4.27621 4.48133 4.27921 4.48435 4.28275 4.48668C4.28625 4.48901 4.29022 4.49065 4.29433 4.49141C4.29848 4.49221 4.3027 4.49214 4.30681 4.49126C4.31092 4.49039 4.31481 4.48868 4.31832 4.48628C4.32179 4.48384 4.32475 4.48079 4.32704 4.47719C4.32933 4.47362 4.3309 4.46962 4.33169 4.4654ZM5.45041 3.21306C5.74336 3.19306 6.17983 3.28508 6.29977 3.55516C6.36858 3.7092 6.29977 3.89925 6.05597 4.10731C5.98976 4.17478 5.91427 4.23207 5.83183 4.27735C5.53691 4.40539 5.21054 4.03529 5.45041 3.21306ZM6.01271 31.5067C5.82275 31.4549 5.62457 31.4424 5.42974 31.4698C5.23492 31.4971 5.04746 31.5638 4.87837 31.666C4.70929 31.768 4.56197 31.9035 4.44515 32.0646C4.32829 32.2255 4.24425 32.4085 4.19799 32.603C4.11066 33.0072 4.18462 33.4299 4.40365 33.7784C4.62267 34.1269 4.96878 34.3727 5.36586 34.4616C5.76295 34.5504 6.17848 34.4752 6.52097 34.2523C6.86354 34.0294 7.10505 33.6773 7.19238 33.2732C7.2297 33.0783 7.22874 32.878 7.18952 32.6834C7.15034 32.4889 7.0737 32.3043 6.96406 32.1401C6.85439 31.9759 6.71387 31.8353 6.55061 31.7267C6.38731 31.6179 6.2045 31.5433 6.01271 31.5067ZM6.62024 33.1372C6.54135 33.4573 6.35249 33.7382 6.08782 33.9289C5.82315 34.1198 5.5001 34.208 5.17712 34.1775C4.88063 34.0596 4.63447 33.8391 4.48201 33.5548C4.32954 33.2704 4.28046 32.9405 4.34348 32.6231C4.41705 32.2951 4.60416 32.0051 4.87058 31.806C5.13701 31.607 5.46496 31.5121 5.79448 31.5388C6.0939 31.6646 6.34009 31.8939 6.48969 32.1863C6.6393 32.4787 6.68277 32.8154 6.61238 33.1372H6.62024Z" fill="#111B29"/>
<path d="M8.63142 32.0769C8.46026 32.0169 8.27681 32.0024 8.0986 32.0349C8.02471 31.8625 7.93384 31.6983 7.82728 31.5448C7.95508 31.4267 8.30505 31.0987 8.2205 30.9446C7.91962 30.5783 7.56239 30.2643 7.1627 30.0144C6.99583 29.9192 6.81209 29.8586 6.62205 29.8363C6.49622 29.8543 6.19734 30.3525 6.13049 30.4645C6.08724 30.4645 5.93392 30.4145 5.92212 30.4085C5.92212 30.2644 5.88083 29.7443 5.75303 29.6843C5.61011 29.6308 5.46173 29.5937 5.31066 29.5742C5.17106 29.5522 3.91472 29.7863 3.82231 29.9583C3.76136 30.0744 3.90292 30.5125 3.94421 30.6345C3.83818 30.6939 3.73634 30.7607 3.63946 30.8346C3.44285 30.9766 3.49594 30.9706 3.46055 30.9546C3.41776 30.9338 3.37193 30.9203 3.32488 30.9146C3.16781 30.8209 2.98367 30.7856 2.80386 30.8146C2.62298 30.8746 2.19634 31.8629 2.12752 32.1169C2.105 32.181 2.09892 32.2498 2.10983 32.317C2.15701 32.449 2.47159 32.555 2.60332 32.5971C2.56693 32.8545 2.56693 33.1159 2.60332 33.3733C2.4303 33.4213 2.07047 33.5293 2.09013 33.7094C2.10979 33.8894 2.56986 35.0777 2.76057 35.1718C2.86506 35.2313 2.9806 35.2678 3.09978 35.2791C3.21896 35.2904 3.33915 35.2764 3.45268 35.2378C3.5166 35.2053 3.57837 35.1686 3.6375 35.1278C3.71614 35.1878 3.79872 35.2418 3.88326 35.2938C3.82231 35.4478 3.68665 35.7919 3.7299 35.948C3.75153 36.0302 3.81641 36.056 3.90685 36.0902C4.15655 36.1822 5.50137 36.5103 5.70585 36.4743C5.78252 36.4623 5.82381 36.3801 5.84741 36.3022C5.89109 36.1244 5.91679 35.9429 5.92405 35.7599C6.02504 35.7497 6.12545 35.7345 6.2249 35.7141C6.28563 35.8225 6.36331 35.9207 6.45493 36.004C6.55521 36.076 6.63975 36.04 6.75378 35.9662C6.80884 36.0382 6.89141 36.1382 6.97989 36.148C7.20206 36.1742 8.12023 35.2938 8.2146 35.1137C8.29325 34.9637 8.0062 34.6956 7.8784 34.5776C8.01664 34.3659 8.12516 34.1357 8.20084 33.8934C8.34265 33.9151 8.48618 33.9233 8.62945 33.9174C8.69434 33.9174 8.76905 33.8934 8.79657 33.8314C8.91651 33.5533 8.88112 32.499 8.79657 32.231C8.78478 32.1529 8.6963 32.1009 8.63142 32.0769ZM8.67861 32.261C8.74546 32.521 8.76705 33.5033 8.66874 33.7574C8.49876 33.7744 8.32725 33.7664 8.15952 33.7334C8.14164 33.7302 8.12323 33.734 8.10797 33.744C8.09267 33.754 8.08162 33.7696 8.07698 33.7874C7.99869 34.0578 7.87711 34.3133 7.71714 34.5436C7.70577 34.5589 7.70063 34.5779 7.70284 34.5971C7.70502 34.6161 7.71443 34.6335 7.72898 34.6456C7.86692 34.7568 7.9841 34.8923 8.07501 35.0457C7.97671 35.2098 7.20796 35.9261 6.99562 35.9862C6.96416 35.9862 6.87765 35.8661 6.85602 35.8341C6.78338 35.7228 6.71775 35.6075 6.65941 35.4878C6.6509 35.4704 6.63628 35.4569 6.61848 35.45C6.60064 35.4427 6.58087 35.4427 6.56304 35.45C5.99286 35.6679 5.77663 35.5399 5.77663 35.6839C5.77688 35.8996 5.74234 36.1138 5.67435 36.3183C5.21232 36.267 4.75736 36.1637 4.31777 36.0102C4.339 35.7963 4.39756 35.5882 4.49079 35.3958C4.54977 35.2618 4.31384 35.2998 3.87343 34.8437C3.85924 34.8303 3.84065 34.8228 3.82135 34.8228C3.80201 34.8228 3.78342 34.8303 3.76923 34.8437C3.57261 35.0077 3.31702 35.1678 3.2659 35.1418C3.16563 35.0917 2.70359 34.0254 2.67607 33.8094C2.81591 33.7102 2.97467 33.642 3.14204 33.6093C3.15987 33.6042 3.17528 33.5927 3.18543 33.5768C3.19551 33.561 3.1997 33.542 3.19709 33.5233C3.1489 33.2401 3.1489 32.9503 3.19709 32.6671C3.20009 32.6496 3.19648 32.6317 3.18701 32.6169C3.1775 32.6021 3.16284 32.5914 3.14597 32.5871C2.99772 32.5476 2.85505 32.489 2.72129 32.413C2.67803 32.381 2.68197 32.383 2.6859 32.349C2.81316 31.882 3.01724 31.4402 3.28949 31.0426C3.39566 31.0126 3.68272 31.2267 3.78102 31.3027C3.79128 31.3129 3.80504 31.3185 3.81934 31.3185C3.83368 31.3185 3.84744 31.3129 3.8577 31.3027C3.94803 31.2073 4.0453 31.1192 4.14868 31.0386C4.44753 30.8086 4.52814 30.8386 4.50258 30.7586C4.41218 30.5579 4.36142 30.341 4.35316 30.1204C4.38362 30.0946 4.41822 30.0744 4.4554 30.0604C4.63896 29.9865 4.82753 29.9263 5.01967 29.8803C5.25257 29.8143 5.49193 29.7746 5.73337 29.7623C5.77466 29.7803 5.81202 29.9623 5.82185 30.0184C5.89459 30.4185 5.84544 30.5005 5.90246 30.5065C6.4628 30.5625 6.57683 30.7206 6.61616 30.6505C6.72519 30.4565 6.85227 30.2736 6.99562 30.1044C7.0369 30.0624 7.03494 30.0424 7.1588 30.1144C7.52886 30.3605 7.86028 30.6619 8.14186 31.0086C8.17135 31.0606 7.91576 31.3367 7.72898 31.4988C7.66409 31.5568 7.7565 31.5828 7.92559 31.9109C8.09467 32.239 8.05531 32.331 8.14576 32.311C8.32013 32.2685 8.49955 32.2516 8.67861 32.261ZM35.9661 15.5444C35.5539 15.3731 35.1221 15.2568 34.6806 15.1983C34.3582 15.1463 33.9785 15.0943 33.6581 15.0523C33.9667 14.6082 34.8808 13.4839 35.0342 13.2098C35.0774 13.1358 34.9952 13.0317 34.9341 12.9697C34.592 12.5976 33.9314 12.4576 33.4241 12.3776C33.1331 12.3296 31.9181 12.1775 31.7116 12.2775C31.4639 12.3976 29.6315 15.1983 29.5764 15.6245C29.5764 15.6965 29.6 15.7245 29.6688 15.7505C29.9578 15.8585 31.2614 16.0266 31.5524 16.0966C31.1591 16.7968 29.4113 19.1634 29.2402 19.4975C29.1989 19.5815 29.2245 19.6315 29.2736 19.6475C29.4506 19.7191 29.6326 19.7766 29.8182 19.8196C29.889 19.8416 30.0443 19.7436 30.2705 19.6035C31.285 18.9834 35.6379 16.0586 35.9722 15.6805C35.9815 15.6716 35.9886 15.6608 35.9936 15.6488C35.9983 15.6369 36.0004 15.624 35.9997 15.6111C35.9993 15.5982 35.9958 15.5855 35.9901 15.574C35.9843 15.5625 35.9761 15.5525 35.9661 15.5444ZM31.7411 17.9451C30.0699 19.0674 29.5056 19.3955 29.486 19.4095C29.7553 18.9914 31.4285 16.6587 31.7155 16.1006C31.7204 16.0897 31.7231 16.0781 31.7231 16.0661C31.7231 16.0542 31.7203 16.0424 31.7152 16.0317C31.7101 16.0209 31.7028 16.0116 31.6936 16.004C31.6846 15.9966 31.6739 15.9912 31.6625 15.9886C31.4658 15.9165 30.0345 15.7605 29.6963 15.6385C29.7396 15.2664 31.5248 12.4536 31.7411 12.3416C31.9574 12.2295 34.0552 12.4836 34.4486 12.7697C34.242 13.1798 33.1017 14.6162 32.9168 14.9503C32.8795 15.0183 32.8677 15.0843 32.9404 15.1023C33.0132 15.1203 34.8611 15.3404 35.2644 15.4744C34.7729 15.8925 32.2916 17.569 31.7411 17.9371V17.9451ZM19.1285 5.71376C19.1285 5.73177 19.1403 5.75377 19.1698 5.8698C19.1775 5.89497 19.1945 5.91611 19.2173 5.9288C19.2399 5.94146 19.2666 5.9447 19.2917 5.93782C19.3167 5.9304 19.3379 5.91316 19.3503 5.88988C19.363 5.86664 19.3659 5.83925 19.3585 5.81379C19.3389 5.73577 19.3212 5.66975 19.3094 5.63774C19.2979 5.61577 19.2789 5.59893 19.2558 5.59053C19.2329 5.58209 19.2076 5.58267 19.185 5.59216C19.1624 5.60166 19.144 5.61937 19.1337 5.64185C19.1232 5.66433 19.1213 5.68997 19.1285 5.71376Z" fill="#111B29"/>
</svg>
