<svg width="80" height="80" viewBox="0 0 80 80" fill="none" xmlns="http://www.w3.org/2000/svg">
<circle cx="40" cy="40" r="40" fill="#AA2EDF"/>
<path d="M45.611 51.8291L27.2463 54.6544C26.1333 54.8256 25.1744 53.8667 25.3456 52.7537L28.1709 34.389C28.2699 33.7456 28.7344 33.2187 29.3603 33.0399L39.0571 30.2694C39.639 30.1031 40.2654 30.2654 40.6934 30.6934L49.3066 39.3066C49.7346 39.7346 49.8969 40.3609 49.7306 40.9429L46.9601 50.6397C46.7813 51.2656 46.2544 51.7301 45.611 51.8291Z" stroke="white" stroke-width="2.5" stroke-linecap="round" stroke-linejoin="round"/>
<path d="M45.5103 25.8673L41.5373 28.847C40.7259 29.4555 40.6417 30.6417 41.3588 31.3588L48.6412 38.6412C49.3583 39.3583 50.5445 39.2741 51.153 38.4627L54.1327 34.4897C54.6304 33.8262 54.5644 32.8977 53.9779 32.3112L47.6888 26.0221C47.1023 25.4356 46.1738 25.3696 45.5103 25.8673Z" stroke="white" stroke-width="2.5" stroke-linecap="round" stroke-linejoin="round"/>
<circle cx="36.6663" cy="43.3333" r="3.33333" stroke="white" stroke-width="2.5"/>
<path d="M26.667 53.3333L33.3337 46.6666" stroke="white" stroke-width="2.5" stroke-linecap="round" stroke-linejoin="round"/>
</svg>
