<svg width="81" height="80" viewBox="0 0 81 80" fill="none" xmlns="http://www.w3.org/2000/svg">
<circle cx="40.5" cy="40" r="40" fill="white" fill-opacity="0.1"/>
<path d="M56.0007 36.6667H26.0007C25.084 36.6667 24.334 37.4167 24.334 38.3334V46.9834C24.334 47.3168 24.3507 47.6501 24.384 47.9834C24.7173 53.1168 27.884 56.2834 33.0173 56.6168C33.3507 56.6501 33.684 56.6668 34.0173 56.6668H47.984C48.3173 56.6668 48.6507 56.6501 48.984 56.6168C54.1173 56.2834 57.284 53.1168 57.6173 47.9834C57.6507 47.6501 57.6673 47.3168 57.6673 46.9834V38.3334C57.6673 37.4167 56.9173 36.6667 56.0007 36.6667ZM34.334 46.9168C34.9007 47.7501 35.6673 48.4334 36.5507 48.8834C37.184 49.1834 37.434 49.9334 37.1173 50.5668C36.9007 51.0001 36.4507 51.2501 36.0007 51.2501C35.8173 51.2501 35.6173 51.2001 35.4507 51.1168C34.1507 50.4834 33.0507 49.5001 32.2673 48.3168C31.6007 47.3168 31.6007 46.0168 32.2673 45.0168C33.0507 43.8334 34.1507 42.8501 35.4507 42.2168C36.0673 41.9001 36.8173 42.1501 37.1173 42.7668C37.434 43.4001 37.184 44.1501 36.5507 44.4501C35.6673 44.9001 34.9007 45.5834 34.334 46.4168C34.234 46.5668 34.234 46.7668 34.334 46.9168ZM50.084 48.3168C49.284 49.5001 48.184 50.4834 46.9007 51.1168C46.7173 51.2001 46.534 51.2501 46.3507 51.2501C45.884 51.2501 45.4507 51.0001 45.234 50.5668C44.9173 49.9334 45.1673 49.1834 45.784 48.8834C46.684 48.4334 47.4507 47.7501 48.0007 46.9168C48.1173 46.7668 48.1173 46.5668 48.0007 46.4168C47.4507 45.5834 46.684 44.9001 45.784 44.4501C45.1673 44.1501 44.9173 43.4001 45.234 42.7668C45.534 42.1501 46.284 41.9001 46.9007 42.2168C48.184 42.8501 49.284 43.8334 50.084 45.0168C50.7507 46.0168 50.7507 47.3168 50.084 48.3168Z" fill="white"/>
<path d="M57.6673 33.0166V33.3333C57.6673 34.2499 56.9173 34.9999 56.0007 34.9999L26.0007 35.0166C25.084 35.0166 24.334 34.2666 24.334 33.3499V33.0166C24.334 32.6833 24.3507 32.3499 24.384 32.0166C24.7173 26.8833 27.884 23.7166 33.0173 23.3833C33.3507 23.3499 33.684 23.3333 34.0173 23.3333H47.984C48.3173 23.3333 48.6507 23.3499 48.984 23.3833C54.1173 23.7166 57.284 26.8833 57.6173 32.0166C57.6507 32.3499 57.6673 32.6833 57.6673 33.0166Z" fill="white"/>
</svg>
